<?xml version="1.0" encoding="UTF-8"?>
<svg version="1.1" xmlns="http://www.w3.org/2000/svg" width="35" height="35">
<path d="M0 0 C16 0 16 0 21 3 C22.86173422 4.88931547 24.36566518 6.89871238 26 9 C24.47291037 12.43595166 22.40072955 15.11912454 20 18 C21.98 19.98 23.96 21.96 26 24 C24.2034488 28.24639375 21.18376817 32.90811592 17 35 C11.39 35 5.78 35 0 35 C0 23.45 0 11.9 0 0 Z " fill="#6E90F2" transform="translate(5,0)"/>
<path d="M0 0 C3.01793671 3.01793671 4.03635004 4.94014066 5.6640625 8.8046875 C6.14617188 9.94550781 6.62828125 11.08632812 7.125 12.26171875 C7.62 13.45410156 8.115 14.64648438 8.625 15.875 C9.12773437 17.05964844 9.63046875 18.24429687 10.1484375 19.46484375 C12.20902125 24.37811737 13.95025696 28.75128481 15 34 C10.05 34 5.1 34 0 34 C0 22.78 0 11.56 0 0 Z " fill="#8923BF" transform="translate(5,1)"/>
<path d="M0 0 C9.57668161 -0.92017937 9.57668161 -0.92017937 13.06640625 1.3359375 C14.6875 3 14.6875 3 17 6 C15.34216909 9.91850942 12.89061644 12.90291096 10 16 C7.8359375 16.67578125 7.8359375 16.67578125 6 17 C4.9932996 14.73192796 3.99448234 12.46092246 3 10.1875 C2.71382812 9.54490234 2.42765625 8.90230469 2.1328125 8.24023438 C0.86288959 5.32243531 0 3.21734286 0 0 Z " fill="#B356F2" transform="translate(14,18)"/>
<path d="M0 0 C4.52426773 1.50808924 8.66534667 3.09275253 13 5 C12.54738642 6.43931117 12.08767021 7.87638999 11.625 9.3125 C11.36976562 10.11300781 11.11453125 10.91351563 10.8515625 11.73828125 C10 14 10 14 8 17 C4.04 8.585 4.04 8.585 0 0 Z " fill="#5B55EC" transform="translate(5,0)"/>
<path d="M0 0 C2.90013848 2.90013848 4.04439415 4.82891666 5.6875 8.5 C6.34298828 9.93859375 6.34298828 9.93859375 7.01171875 11.40625 C8 14 8 14 8 17 C5.36 17 2.72 17 0 17 C0 11.39 0 5.78 0 0 Z " fill="#6331C6" transform="translate(5,1)"/>
<path d="M0 0 C0.99 3.3 1.98 6.6 3 10 C-1.62 10 -6.24 10 -11 10 C-2.50943396 0 -2.50943396 0 0 0 Z " fill="#D91DB9" transform="translate(17,25)"/>
<path d="M0 0 C5.15436796 1.36439152 8.06648401 4.72573615 11 9 C11 9.66 11 10.32 11 11 C6.76570244 9.68938409 2.92592596 8.05643741 -1 6 C-1.042721 4.33388095 -1.04063832 2.66617115 -1 1 C-0.67 0.67 -0.34 0.34 0 0 Z " fill="#7BB3F3" transform="translate(20,0)"/>
<path d="M0 0 C-1.07192184 1.3218362 -2.15802695 2.63217927 -3.25 3.9375 C-3.85328125 4.66839844 -4.4565625 5.39929688 -5.078125 6.15234375 C-7.10741134 8.10326334 -8.254407 8.61731779 -11 9 C-11.66 7.02 -12.32 5.04 -13 3 C-11.40084119 2.30093058 -9.79544955 1.61610532 -8.1875 0.9375 C-7.29417969 0.55464844 -6.40085937 0.17179687 -5.48046875 -0.22265625 C-3 -1 -3 -1 0 0 Z " fill="#BD61F2" transform="translate(31,26)"/>
<path d="M0 0 C4.29 0 8.58 0 13 0 C12.34 1.65 11.68 3.3 11 5 C9.35153231 4.55123384 7.70626545 4.09069512 6.0625 3.625 C5.14597656 3.36976562 4.22945312 3.11453125 3.28515625 2.8515625 C1 2 1 2 0 0 Z " fill="#6A71EE" transform="translate(7,0)"/>
<path d="M0 0 C0.33 1.65 0.66 3.3 1 5 C-0.45381897 5.69699552 -1.91322953 6.38233866 -3.375 7.0625 C-4.18710938 7.44535156 -4.99921875 7.82820313 -5.8359375 8.22265625 C-6.55007813 8.47917969 -7.26421875 8.73570313 -8 9 C-8.66 8.67 -9.32 8.34 -10 8 C-8.71451591 6.66070495 -7.42141845 5.32871357 -6.125 4 C-5.04605469 2.88625 -5.04605469 2.88625 -3.9453125 1.75 C-2 0 -2 0 0 0 Z " fill="#B31FB9" transform="translate(17,25)"/>
<path d="M0 0 C3.29696105 1.09898702 4.04670589 1.94597387 6.1875 4.5625 C6.71730469 5.20316406 7.24710938 5.84382812 7.79296875 6.50390625 C8.19128906 6.99761719 8.58960938 7.49132812 9 8 C8.34 9.32 7.68 10.64 7 12 C4.39954125 9.6975881 3.15260817 7.50103323 1.8125 4.3125 C1.46832031 3.50425781 1.12414062 2.69601563 0.76953125 1.86328125 C0.51558594 1.24839844 0.26164063 0.63351563 0 0 Z " fill="#534BE8" transform="translate(5,0)"/>
<path d="M0 0 C2.64 0 5.28 0 8 0 C6.35 1.98 4.7 3.96 3 6 C1.5 4.6875 1.5 4.6875 0 3 C0 2.01 0 1.02 0 0 Z " fill="#8359EE" transform="translate(14,18)"/>
<path d="M0 0 C0.33 1.65 0.66 3.3 1 5 C-1.64 5 -4.28 5 -7 5 C-2.25 0 -2.25 0 0 0 Z " fill="#7734C9" transform="translate(12,13)"/>
</svg>
