<svg width="111" height="72" viewBox="0 0 111 72" fill="none" xmlns="http://www.w3.org/2000/svg">
    <path d="M0.67836 35.4645V49.1552V62.846H3.14253H5.60702V62.4626V62.0795L6.60632 62.5585C7.14025 62.8324 7.98924 63.1198 8.48211 63.2019C9.68689 63.421 10.0018 63.421 11.3572 63.2019C15.8751 62.4763 19.1609 58.2869 19.1609 53.2624C19.1609 47.8956 14.8481 43.2136 9.91949 43.2273C8.55041 43.2273 7.67438 43.4462 6.42852 44.076L5.60702 44.5006V39.9826V35.4645H3.14253H0.67836ZM57.4947 35.4645V39.9141V44.3634L57.1938 44.1719C57.0158 44.0624 56.386 43.8024 55.7836 43.6107C54.3872 43.1452 52.4019 43.0767 51.1287 43.4601C45.0911 45.2673 42.2023 52.3041 45.1048 58.1226C46.4738 60.8608 48.856 62.7227 51.5805 63.1882C52.9359 63.4209 53.2506 63.4212 54.3322 63.2432C55.3042 63.0926 56.3857 62.6955 56.9744 62.2848C57.4536 61.9425 57.4947 61.9563 57.4947 62.4354V62.846H59.9592H62.4234V49.1552V35.4645H59.9592H57.4947ZM94.3268 43.2375C92.7664 43.2389 91.1876 43.59 89.709 44.3088C85.0268 46.5951 82.8502 52.1809 84.7669 56.959C86.0538 60.1626 88.9699 62.5721 92.3241 63.1882C94.3092 63.5441 96.7461 63.3389 98.7039 62.627C99.7033 62.271 101.812 61.1072 102.099 60.7649C102.222 60.6143 101.949 60.2721 100.757 59.081C99.4295 57.753 99.2242 57.6024 99.0051 57.753C98.4438 58.1637 96.7188 58.9031 95.9932 59.0263C94.7747 59.2591 93.036 59.1086 92.0913 58.6842C91.0782 58.2324 89.9829 57.1369 89.5037 56.1375L89.1615 55.3847L96.7734 55.3163L104.386 55.2476L104.427 53.468C104.454 52.1126 104.413 51.4691 104.235 50.7982C103.728 48.8952 102.866 47.4439 101.428 46.0611C99.4774 44.2043 96.9275 43.2353 94.3268 43.2375ZM73.6481 43.2682C72.9036 43.2751 72.1097 43.3435 71.5689 43.4735C68.023 44.295 65.4081 47.3756 65.3944 50.7298C65.3807 53.112 66.9002 55.6036 69.1181 56.8768L69.6659 57.178L69.1866 57.4383C67.9407 58.1092 67.8451 59.793 69.0088 60.505L69.4331 60.7649L68.8991 60.9293C68.0092 61.2305 66.8181 61.8739 66.2568 62.3804C65.4491 63.106 64.8878 64.3522 64.7919 65.6117C64.5592 68.7058 66.8045 70.9783 70.9118 71.8134C72.1439 72.0599 75.2518 72.0599 76.5935 71.8272C79.359 71.3343 81.2892 70.1295 82.2886 68.295C82.7268 67.4735 82.7542 67.3639 82.7542 66.0633C82.7542 64.8448 82.7131 64.6123 82.3708 63.9141C81.3988 61.9426 78.9483 60.6146 75.5667 60.2312C73.7048 60.0259 72.9107 59.6698 72.9928 59.1085C73.0613 58.643 73.6772 58.328 75.0874 58.0405C78.8249 57.2875 81.344 54.9191 81.8506 51.6607C82.0148 50.5791 81.8644 49.1281 81.5084 48.2519C81.3989 48.0055 81.3169 47.759 81.3169 47.7316C81.3169 47.6905 81.7275 47.6493 82.2477 47.6219L83.1648 47.581V45.6643V43.7476L79.537 43.6654C77.3054 43.6243 75.731 43.5284 75.4298 43.4326C75.0876 43.3162 74.3925 43.2614 73.6481 43.2682ZM30.4358 43.288C30.3384 43.288 30.2399 43.2906 30.1407 43.2957C28.8264 43.3505 28.1282 43.6791 27.074 44.7059L26.2938 45.4724L26.2525 44.61L26.2116 43.7476L23.7884 43.7063L21.3514 43.6791V53.2624V62.846H23.8156H26.28V56.8906C26.28 51.1541 26.2937 50.9213 26.5675 50.1683C26.9372 49.1689 27.8134 48.2791 28.6211 48.06C29.7574 47.7588 30.7432 48.1149 31.948 49.2649L32.5639 49.8536L33.3032 48.7172C33.7003 48.0874 34.3027 47.1566 34.6312 46.6364L35.2337 45.6915L34.6859 45.2124C33.1714 43.8776 31.8977 43.2888 30.4358 43.288ZM36.1374 43.6791V53.2624V62.846H38.6015H41.066V53.2624V43.6791H38.6015H36.1374ZM73.6871 47.244C75.167 47.26 76.566 48.2485 77.0178 49.799C77.7982 52.455 75.1147 54.9465 72.4998 54.0155C71.692 53.728 71.0214 53.1118 70.5696 52.2356C69.666 50.4695 70.3914 48.4161 72.2123 47.5673C72.6914 47.3414 73.1938 47.2386 73.6871 47.244ZM94.2546 47.4576C95.3635 47.4576 95.6097 47.5126 96.4038 47.8822C97.5538 48.4299 98.4166 49.2102 98.9642 50.237C99.6761 51.5924 100.101 51.4829 94.2546 51.4829C90.7224 51.4829 89.1203 51.4418 89.1203 51.3323C89.1203 51.2638 89.2846 50.8392 89.5037 50.4148C90.0102 49.3743 91.0235 48.3888 92.1188 47.8822C92.8992 47.5126 93.1456 47.4576 94.2546 47.4576ZM54.1451 47.488C54.9928 47.4969 55.8606 47.6948 56.6735 48.1013L57.5631 48.5394L57.6044 53.0709L57.6319 57.6161L57.1938 57.9995C56.0575 58.9579 54.127 59.3687 52.6895 58.9716C49.2257 57.9859 47.7059 53.5226 49.6363 49.963C50.5116 48.3629 52.2801 47.4683 54.1451 47.488ZM9.34198 47.4947C9.7604 47.5013 10.1556 47.5467 10.4944 47.6357C11.357 47.8684 12.4797 48.6349 13.0274 49.3605C13.8214 50.401 14.1226 51.3322 14.2048 52.934C14.3006 54.8918 13.8487 56.3157 12.7808 57.5068C11.576 58.8348 9.35824 59.4781 7.72904 58.9579C6.94867 58.7115 6.27766 58.3556 5.85325 57.9449L5.47016 57.5889V53.1118V48.6215L5.85325 48.3475C6.62335 47.8033 8.08671 47.4748 9.34198 47.4947ZM73.8415 63.9412C75.6761 63.9412 76.7715 64.2151 77.415 64.8312C77.9352 65.3103 78.0994 65.7896 77.9762 66.4604C77.7434 67.6515 76.6207 68.199 74.1974 68.2675C73.3349 68.2948 72.3493 68.254 72.0207 68.1856C71.1719 68.0076 70.2274 67.501 69.9125 67.0629C69.5976 66.6248 69.5427 65.7484 69.8165 65.2555C70.2683 64.393 71.6647 63.9412 73.8415 63.9412Z"
          fill="white"/>
    <path d="M21.4267 0V0.000959287C9.58478 0.0525898 0.00372899 9.6672 0.00383715 21.5182C0.00383715 22.4366 0 23.3748 0 24.2861L11.5064 24.2801C11.5064 23.4679 11.5062 22.3863 11.5061 21.4577C11.5059 15.8586 15.8715 11.3772 21.4619 11.3452C27.0526 11.3769 31.4185 15.8584 31.4184 21.4577C31.4182 22.3863 31.4181 23.4679 31.4181 24.2801L42.9245 24.2861C42.9245 23.3748 42.9206 22.4366 42.9206 21.5182C42.9207 9.66719 33.3397 0.0525679 21.4977 0.000959287V0C21.4859 1.23217e-05 21.4741 0.000602352 21.4622 0.000643424C21.4504 0.000643424 21.4386 1.36907e-05 21.4267 0H21.4267Z"
          fill="#2683BB"/>
    <path d="M52.8415 0.0604248V0.0614108C40.9996 0.11304 31.4185 9.72765 31.4186 21.5786C31.4186 22.4971 31.4148 23.4353 31.4148 24.3466L42.9212 24.3405C42.9212 23.5283 42.921 22.4468 42.9208 21.5182C42.9207 15.9191 47.2863 11.4377 52.8767 11.4057C58.4673 11.4373 62.8333 15.9189 62.8331 21.5182C62.833 22.4468 62.8328 23.5283 62.8328 24.3405L74.3392 24.3466C74.3392 23.4353 74.3354 22.4971 74.3354 21.5786C74.3355 9.72764 64.7544 0.113019 52.9125 0.0614108V0.0604248C52.9006 0.0604371 52.8889 0.0610816 52.877 0.0610816C52.8651 0.0610816 52.8534 0.0604248 52.8415 0.0604248V0.0604248Z"
          fill="#56B5FB"/>
    <path d="M84.2558 0.12085V0.121836C72.4138 0.173465 62.8328 9.78807 62.8329 21.6391C62.8329 22.5575 62.8291 23.4957 62.8291 24.407L74.3355 24.4009C74.3355 23.5887 74.3353 22.5072 74.3351 21.5786C74.335 15.9795 78.7006 11.4981 84.291 11.4661C89.8816 11.4978 94.2476 15.9793 94.2474 21.5786C94.2473 22.5072 94.2471 23.5887 94.2471 24.4009L105.753 24.407C105.753 23.4957 105.75 22.5575 105.75 21.6391C105.75 9.78806 96.1687 0.173444 84.3268 0.121836V0.12085C84.3149 0.120862 84.3031 0.121508 84.2913 0.121508C84.2794 0.121508 84.2676 0.12085 84.2558 0.12085H84.2558Z"
          fill="#7BE0FD"/>
    <path d="M37.1978 6.90723C33.6129 10.7511 31.4185 15.9085 31.4186 21.5787C31.4186 21.5824 31.4186 21.586 31.4186 21.5896C31.4184 22.4876 31.4182 23.5059 31.4182 24.2802L42.9211 24.2863C42.9211 23.4797 42.921 22.429 42.9208 21.5183C42.9208 15.8777 40.7495 10.7446 37.1978 6.90723H37.1978Z"
          fill="#0F78B9"/>
    <path d="M68.6116 6.96558C65.0267 10.8094 62.8323 15.9668 62.8323 21.6371C62.8323 21.6407 62.8323 21.6443 62.8323 21.648C62.8322 22.5459 62.832 23.564 62.832 24.3382L74.3349 24.3443C74.3349 23.5377 74.3348 22.4872 74.3346 21.5767C74.3346 21.5765 74.3346 21.5764 74.3346 21.5763C74.3346 15.9358 72.1632 10.803 68.6116 6.96558V6.96558Z"
          fill="#2AAAFA"/>
    <path d="M38.79 40.2597C40.282 40.2597 41.4915 39.0502 41.4915 37.5583C41.4915 36.0663 40.282 34.8568 38.79 34.8568C37.2981 34.8568 36.0886 36.0663 36.0886 37.5583C36.0886 39.0502 37.2981 40.2597 38.79 40.2597Z"
          fill="white"/>
    <path d="M108.262 63.8283C109.754 63.8283 110.964 62.6188 110.964 61.1269C110.964 59.6349 109.754 58.4254 108.262 58.4254C106.77 58.4254 105.561 59.6349 105.561 61.1269C105.561 62.6188 106.77 63.8283 108.262 63.8283Z"
          fill="white"/>
</svg>
