<?xml version="1.0" encoding="utf-8"?>
<!-- Generator: Adobe Illustrator 24.3.0, SVG Export Plug-In . SVG Version: 6.00 Build 0)  -->
<svg version="1.0" id="Laag_1" xmlns="http://www.w3.org/2000/svg" xmlns:xlink="http://www.w3.org/1999/xlink" x="0px" y="0px"
	 viewBox="0 0 30 30" style="enable-background:new 0 0 30 30;" xml:space="preserve">
<style type="text/css">
	.st0{fill:#778EF6;}
	.st1{fill:#DD4FF4;}
	.st2{fill:#85C5F6;}
	.st3{fill:#B457F4;}
	.st4{fill:#6B94F3;}
	.st5{fill:#835CF1;}
	.st6{fill:#6B73EF;}
	.st7{fill:#6053EF;}
	.st8{fill:#5756ED;}
	.st9{fill:#DD1CB8;}
	.st10{fill:#8D22B6;}
	.st11{fill:#B41EB8;}
	.st12{fill:#8320B6;}
	.st13{fill:#7736C9;}
	.st14{fill:#6331C5;}
	.st15{fill:#8D25C5;}
	.st16{fill:#8323C5;}
	.st17{fill:#504BEB;}
</style>
<g>
	<polygon class="st0" points="11,15.1 18.9,15 13.2,9.2 10.9,15.1 	"/>
	<polygon class="st1" points="16.6,29.6 25.1,21 14.9,25.3 	"/>
	<polygon class="st2" points="25.1,8.9 16.6,0.4 14.9,4.7 	"/>
	<polygon class="st3" points="18.9,15 18.8,15.1 13.2,20.8 14.9,25.3 25.1,21 	"/>
	<polygon class="st4" points="13.2,9.2 18.9,15 25.1,8.9 14.9,4.7 	"/>
	<polygon class="st5" points="13.2,20.8 18.9,15 10.9,15.1 	"/>
	<polygon class="st6" points="16.6,0.4 4.5,0.4 14.9,4.7 	"/>
	<polygon class="st7" points="13.2,9.2 11.7,7.7 9,10.5 10.9,15.1 	"/>
	<polygon class="st8" points="13.2,9.2 14.9,4.7 4.5,0.4 11.7,7.7 	"/>
	<polygon class="st9" points="4.5,29.6 16.6,29.6 14.9,25.3 	"/>
	<polygon class="st10" points="8.9,19.6 6.4,25.3 4.5,29.6 11.6,22.3 	"/>
	<polygon class="st11" points="13.2,20.8 11.6,22.3 4.5,29.6 14.9,25.3 	"/>
	<polygon class="st12" points="10.9,15.1 8.9,19.6 11.6,22.3 13.2,20.8 	"/>
	<polygon class="st13" points="10.9,15.1 9,10.5 4.4,15.1 4.4,15.1 10.9,15.1 	"/>
	<polygon class="st14" points="9,10.5 4.5,0.4 4.4,15.1 4.4,15.1 	"/>
	<polygon class="st15" points="8.9,19.6 4.4,15.1 4.4,15.3 4.5,29.6 6.4,25.3 	"/>
	<polygon class="st16" points="4.4,15.1 4.4,15.1 8.9,19.6 10.9,15.1 	"/>
	<polygon class="st17" points="11.7,7.7 4.5,0.4 9,10.5 	"/>
</g>
</svg>
