<?xml version="1.0" encoding="utf-8"?>
<!-- Generator: Adobe Illustrator 24.3.0, SVG Export Plug-In . SVG Version: 6.00 Build 0)  -->
<svg version="1.1" id="Laag_1" xmlns="http://www.w3.org/2000/svg" xmlns:xlink="http://www.w3.org/1999/xlink" x="0px" y="0px"
     viewBox="0 0 84 21" style="enable-background:new 0 0 84 21;" xml:space="preserve">
<style type="text/css">
	.st0{fill-rule:evenodd;clip-rule:evenodd;fill:#FFFFFF;}
	.st1{fill:none;stroke:#FFFFFF;stroke-width:0.216;stroke-miterlimit:22.9256;}
	.st2{fill-rule:evenodd;clip-rule:evenodd;fill:#F4E41C;}
	.st3{fill-rule:evenodd;clip-rule:evenodd;fill:#F6BC12;}
	.st4{fill-rule:evenodd;clip-rule:evenodd;}
	.st5{fill-rule:evenodd;clip-rule:evenodd;fill:#B99D85;}
	.st6{fill-rule:evenodd;clip-rule:evenodd;fill:#9E775C;}
	.st7{fill-rule:evenodd;clip-rule:evenodd;fill:#F6C4B1;}
	.st8{fill-rule:evenodd;clip-rule:evenodd;fill:#E30613;}
	.st9{fill-rule:evenodd;clip-rule:evenodd;fill:#FDE100;}
	.st10{fill-rule:evenodd;clip-rule:evenodd;fill:#FAC200;}
	.st11{fill-rule:evenodd;clip-rule:evenodd;fill:#525251;}
	.st12{fill-rule:evenodd;clip-rule:evenodd;fill:#F2E2CF;}
	.st13{fill-rule:evenodd;clip-rule:evenodd;fill:#EDC9A2;}
	.st14{fill:#FCFAFA;}
	.st15{fill:#FCFCFC;}
	.st16{fill:#FFFFFF;}
</style>
    <path class="st0" d="M22.5,3c4.7,0,8.5,3.8,8.5,8.5c0,4.7-3.8,8.5-8.5,8.5S14,16.2,14,11.5C14,6.8,17.8,3,22.5,3z"/>
    <path class="st1" d="M22.5,3c4.7,0,8.5,3.8,8.5,8.5c0,4.7-3.8,8.5-8.5,8.5S14,16.2,14,11.5C14,6.8,17.8,3,22.5,3z"/>
    <path class="st2" d="M22.5,3.5c4.4,0,8,3.6,8,8c0,4.4-3.6,8-8,8c-4.4,0-8-3.6-8-8C14.5,7.1,18.1,3.5,22.5,3.5z"/>
    <path class="st3" d="M25.1,4c0.6,0.2,1.2,0.5,1.7,0.8c-0.2,0.1-0.4,0.2-0.5,0.3c-0.2,0.1-0.5,0.3-0.7,0.4l0,0.1c0,0.1,0,0.2-0.1,0.3
	c0,0.2-0.1,0.5-0.1,0.7c0,0.2,0,0.6,0,0.8c0.1,0.4,0.4,0.6,0.8,0.8l-0.3,0c0.1,0,0.1,0.1,0.2,0.1c0.1,0.1,0.2,0.3,0.3,0.5
	c0.2,0.3,0.2,0.7,0.2,1.1c0,0.3-0.1,0.6-0.2,0.9c0.1,0.2,0.2,0.5,0.3,0.7c0.1,0.3,0.3,0.6,0.4,0.9c0.1,0.3,0.2,0.7,0.3,1
	c0.3,1,0.8,1.9,2,1.8c-1.2,2.2-3.3,3.8-5.8,4.1v0c0-0.4,0-0.8,0.1-1.2c0-0.4,0.1-0.7,0.1-1.1c0.1-0.9,0.1-1.6-0.3-2.5
	c-0.1-0.4-0.4-0.7-0.7-0.9c0,0-0.1-0.1-0.2-0.1c-0.2,0.1-0.4,0.3-0.7,0.4c-0.8,0.4-1.6,0.6-2.4,0.6c-0.6,0-1.4,0-2-0.3
	c-0.3-0.2-0.5-0.4-0.6-0.8c0-0.2,0.1-0.5,0.2-0.6c0.1-0.1,0.1-0.1,0.2-0.2c0,0,0.1-0.1,0.1-0.1l0,0c0-0.2,0-0.3,0.1-0.4l0,0
	c-0.1,0-0.3-0.1-0.3-0.2c-0.1-0.2-0.1-0.4-0.1-0.6l-0.1,0C17.1,11.2,17,11.1,17,11c-0.2-0.2-0.2-0.5-0.1-0.8
	c0.2-0.3,0.5-0.5,0.8-0.6l0,0l-0.1-0.2l0.1,0.1c0-0.1,0.1-0.2,0.1-0.2c0,0,0-0.1,0.1-0.1c0,0,0,0,0-0.1c0,0,0,0,0,0c0,0,0,0,0-0.1
	c0-0.1,0-0.1,0-0.2c0-0.2,0.1-0.4,0.3-0.5c0.1-0.1,0.3-0.1,0.5-0.1c0.1,0,0.1,0,0.2,0.1l0,0c0.3-0.1,0.6-0.2,0.9-0.2
	c0.3,0,0.5,0,0.8,0c0.1,0,0.2,0,0.3,0.1l0.2,0.1c0-0.1,0-0.1,0-0.2c0-0.2,0-0.5,0-0.7c0-0.2,0.1-0.4,0.1-0.6c0-0.2,0.1-0.4,0.1-0.6
	c-0.1,0-0.3,0-0.4,0c-0.4-0.1-0.7-0.3-0.8-0.6C20,5.2,20,5,20.2,4.7c0,0.2,0.1,0.3,0.2,0.4c0.1,0.1,0.2,0.1,0.3,0.2c0,0,0.1,0,0.1,0
	c0.1,0,0.2,0,0.3-0.1L21,5.1c-0.3-0.3-0.5-0.6-0.8-0.9C20.2,4.1,20.1,4,20,3.9c0.6-0.2,1.3-0.3,2-0.4c0.1,0.2,0.2,0.3,0.3,0.5
	C22.5,4,22.7,4,22.8,4c0.1,0,0.3,0,0.4,0c0,0,0,0,0,0L23,3.7l0.4,0.1c0.1,0,0.2,0,0.2,0.1C23.8,3.9,24,4,24.1,4.1
	c0.1,0.1,0.1,0.2,0.2,0.2c0.1,0.2,0.2,0.3,0.3,0.5c0,0,0,0,0,0c0,0,0-0.1,0.1-0.1c0.1-0.2,0.2-0.4,0.3-0.5C25,4.1,25.1,4.1,25.1,4z"
    />
    <path class="st4" d="M29.6,15.1c-1.3,2.5-3.9,4.2-6.9,4.3c0,0,0-0.1,0-0.1c0-0.4,0-0.8,0.1-1.2c0-0.4,0.1-0.7,0.1-1.1
	c0.1-0.9,0.1-1.6-0.3-2.5c-0.1-0.4-0.4-0.7-0.7-0.9c-0.1-0.1-0.5-0.3-0.6-0.3c-0.2,0-0.6-0.2-0.8-0.3c-0.5-0.3-0.6-0.8-0.3-1.3
	c0.5-0.8,1.7-1.4,2.6-1.6c0.8-0.2,1.7-0.3,2.5,0.1l0.1,0l0,0.1c0.2,0.4,0.3,0.7,0.5,1.1c0.1,0.3,0.3,0.6,0.4,0.9
	c0.1,0.3,0.2,0.7,0.3,1c0.4,1,0.8,2,2.1,1.8C28.9,15.1,29.2,15.1,29.6,15.1L29.6,15.1z"/>
    <path class="st5" d="M29.5,15.3c-0.5,0.8-1.1,1.6-1.8,2.2c-0.6,0.6-1.4,1-2.2,1.4c-0.8,0.3-1.7,0.5-2.7,0.6c0,0,0-0.1,0-0.1
	c-0.1-1.8,0.6-2.9-0.1-4.8c-0.3-0.9-1.4-1.3-1.5-1.3c-0.1,0-1.6-0.3-1-1.3c0.6-1,3.2-2.2,4.9-1.5c0,0,0.7,1.4,0.9,2
	c0.5,1.3,0.8,3.2,2.6,2.9C28.9,15.3,29.2,15.3,29.5,15.3z"/>
    <path class="st4" d="M24.9,14.2c0,0-0.1,0.5-0.2,0.8c-0.1,0.2-0.2,0.4-0.2,0.4s0.2-0.2,0.3-0.5C25,14.7,24.9,14.2,24.9,14.2z"/>
    <path class="st4" d="M25.1,14.8c0,0-0.1,0.4-0.2,0.6c-0.1,0.2-0.1,0.3-0.1,0.3s0.1-0.1,0.2-0.4C25.1,15.1,25.1,14.8,25.1,14.8z"/>
    <path class="st4" d="M21.9,5.3c-0.3,0.3-0.7,0.4-1.1,0.4c-0.1,0-0.3-0.1-0.4-0.2c-0.1-0.1-0.2-0.2-0.3-0.4c-0.3-0.3-0.5-0.6-0.8-0.9
	c-0.3-0.4-0.5-0.8-0.7-1.2c-0.1-0.3-0.3-0.6-0.4-0.9c0-0.1-0.1-0.3-0.1-0.4c-0.1-0.2-0.1-0.5-0.2-0.7l-0.1-0.2l0.2,0.1
	c0.2,0.1,0.4,0.2,0.5,0.3c0.2,0.2,0.4,0.3,0.6,0.5c0.4,0.3,0.8,0.7,1.2,1.1c0.2,0.2,0.3,0.3,0.4,0.5C21,3.6,21.3,4,21.6,4.5
	c0.1,0.2,0.2,0.4,0.3,0.7L21.9,5.3L21.9,5.3z"/>
    <path class="st5" d="M21.8,5.2c0,0-0.7-1.5-1.7-2.5c-1-1-1.5-1.4-1.8-1.6c-0.2-0.2-0.5-0.3-0.5-0.3s0.2,0.7,0.3,1.1
	c0.1,0.4,0.5,1.3,1.1,2.1c0.6,0.7,1.1,1.3,1.1,1.3S20.9,5.9,21.8,5.2z"/>
    <path class="st6" d="M17.9,1c0.1,0.2,0.2,0.7,0.3,1c0.1,0.4,0.5,1.3,1.1,2.1s1.1,1.3,1.1,1.3s0.1,0.1,0.3,0.2
	c-0.3-0.3-0.7-0.8-0.8-1c-0.3-0.4-0.6-0.8-0.8-1.3c-0.2-0.5-0.1-0.8-0.1-0.8s0.9,1.2,1,1.4C20,4,20.7,5.2,21,5.6c0,0,0.1,0,0.1,0
	l0.1-0.7c0,0-0.5-0.6-0.7-1.1c-0.3-0.5-0.8-1.1-1.4-1.5C18.5,1.9,18.1,1.4,17.9,1z"/>
    <path class="st4" d="M21,5.4c0,0-0.2-0.6-0.6-1.3c-0.4-0.7-0.6-0.9-0.8-1.2c-0.2-0.2-0.8-0.6-0.8-0.6s0.1,0.1,0.1,0.2
	c0.1,0.1,0.1,0.1,0.1,0.1s0.2,0.6,0.3,0.9c0.1,0.2,0.3,0.7,0.5,0.9c0.2,0.2,0.7,0.8,0.8,0.9C20.6,5.3,20.7,5.5,21,5.4z"/>
    <path class="st7" d="M20.8,5.3c0-0.1-0.1-0.2-0.1-0.3c-0.1-0.3-0.3-0.6-0.4-0.9C20,3.7,19.8,3.3,19.5,3c-0.1-0.1-0.2-0.2-0.3-0.3
	c0,0,0,0,0,0c0,0.1,0.1,0.1,0.1,0.2c0,0.1,0.1,0.3,0.1,0.4c0.1,0.2,0.3,0.6,0.5,0.8c0.1,0.1,0.3,0.3,0.4,0.4
	c0.1,0.1,0.2,0.2,0.3,0.3c0.1,0.1,0.1,0.1,0.2,0.2C20.6,5.1,20.7,5.2,20.8,5.3C20.7,5.3,20.8,5.3,20.8,5.3z"/>
    <path class="st4" d="M20.1,9.1c0-0.1,0-0.2,0-0.3c0-0.2,0-0.5-0.1-0.7c0-0.2,0-0.5,0-0.7C20,7.2,20,7,20.1,6.8
	c0.1-0.3,0.1-0.8,0.3-1.1c0,0,0-0.1,0.1-0.1c0.2-0.2,0.6-0.2,0.8-0.1c0.4,0.2,0.5,0.6,0.5,1c0,0.4,0,0.8,0,1.2
	C21.6,8.5,21,9,20.2,9.2l-0.2,0.1L20.1,9.1z"/>
    <path class="st5" d="M20.2,9.1c0,0-0.1-1.1-0.1-1.6c0.1-0.6,0.2-1.3,0.4-1.7c0.2-0.4,1.1-0.3,1.2,0.7C21.7,7.5,21.9,8.5,20.2,9.1z"
    />
    <path class="st6" d="M20.1,8.4c0-0.3,0-0.7,0-1c0-0.3,0.1-0.7,0.2-1.1c0.1,0,0.1-0.1,0.2-0.1c0.1,0,0.3-0.1,0.3-0.1c0,0,0.1,0,0.1,0
	c0,0,0.3,0,0.5,0.4c0,0-0.1-0.1-0.3-0.1c-0.2,0-0.4,0.1-0.5,0.2C20.5,6.8,20.5,7,20.5,7s0.2-0.3,0.4-0.2c0.2,0,0.3,0.2,0.3,0.2
	s-0.2-0.1-0.3-0.1c-0.2,0.1-0.3,0.2-0.3,0.3c-0.1,0.1,0.1,1.1,0.1,1.1S20.4,8.5,20.1,8.4z"/>
    <path class="st8" d="M17.1,13.7c0,0-0.3-0.8-0.3-1.6c0.1-0.8-0.9-1.6-0.5-2c0.3-0.4,1.6-0.3,2-0.3c0.4,0.1,2.9,1.1,3.9,0
	c1.1-1.1,1.2-1.4,1.2-1.4s1-0.1,0.5,1.9c-0.6,2.1-2.5,2.9-3.2,3.1C19.8,13.9,17.6,14.2,17.1,13.7z"/>
    <path class="st4" d="M17.5,12.1C17.5,12,17.5,12,17.5,12.1c0.1-0.1,0.2-0.1,0.3-0.1c0.1,0,0.2,0,0.3,0c0.1,0,0.2,0,0.4,0
	c0.1,0,0.3,0.1,0.3,0.2c0,0,0,0,0,0.1c0.1-0.1,0.1-0.2,0.3-0.2c0,0,0.1,0,0.1,0c0.1,0,0.1,0,0.2,0c0.2,0,0.3,0,0.5,0
	c0.3,0,0.5,0,0.8,0c0.1,0,0.2,0,0.3,0c0.2,0,0.4-0.1,0.6-0.1c0.2,0,0.4-0.1,0.5-0.2c0.2-0.1,0.4-0.3,0.6-0.3c0.1,0,0.2-0.1,0.2-0.1
	l0.1,0l0,0.1c0,0.1,0,0.1,0,0.2c0,0.1,0,0.3-0.1,0.4c-0.1,0.4-0.3,0.8-0.7,1c-0.2,0.2-0.5,0.3-0.7,0.4c-0.3,0.1-0.7,0.3-1,0.4
	c-0.2,0-0.3,0.1-0.5,0.1l-0.1,0l0,0c-0.1-0.1-0.1-0.2-0.2-0.3c0,0,0,0,0-0.1c0,0,0,0,0,0.1c0,0.1-0.1,0.2-0.2,0.2l0,0L19,13.8l0,0
	c-0.1-0.1-0.1-0.2-0.2-0.3c0,0,0,0,0,0c0,0.1-0.1,0.2-0.2,0.2c0,0-0.2,0.2-0.3,0.2l0,0l0,0c-0.1,0-0.1,0-0.2-0.1c0,0-0.1,0-0.1-0.1
	c0,0-0.1,0-0.1-0.1c0,0,0-0.1-0.1-0.1c0-0.1-0.1-0.1-0.1-0.2c0,0.1-0.1,0.1-0.1,0.2c-0.2,0.3-0.5,0.3-0.7,0c0-0.1-0.1-0.1-0.1-0.2
	c-0.1-0.1-0.1-0.3-0.2-0.4c0-0.1,0-0.1-0.1-0.2c0-0.2-0.1-0.5,0.1-0.7c0,0,0,0,0.1,0c0.1-0.1,0.2-0.1,0.3-0.1c0.1,0,0.2,0,0.3,0
	C17.4,12,17.4,12,17.5,12.1z"/>
    <path class="st0" d="M17,13.6c0,0-0.3-0.4-0.3-0.7c-0.1-0.3,0-0.5,0-0.6c0.1-0.1,0.1-0.1,0.3-0.2c0.2-0.1,0.4,0,0.4,0
	c0,0.1,0.1,0.3,0.1,0.4c0,0.1,0.1,0.3,0.1,0.3s-0.1-0.2-0.1-0.4c0-0.2,0-0.3,0.1-0.3c0.1,0,0.6-0.1,0.8-0.1c0.3,0,0.3,0.3,0.3,0.4
	c0,0.1,0,0.4,0,0.4s0-0.3,0.1-0.4c0-0.1,0.1-0.2,0.3-0.3c0.2-0.1,1.6-0.1,1.6-0.1s1,0,1.5-0.3c0.5-0.3,0.8-0.4,0.8-0.4s0,1-0.7,1.5
	c-0.7,0.6-2.1,0.9-2.1,0.9s-0.1-0.1-0.2-0.3c0-0.1-0.1-0.3-0.1-0.3s-0.1,0.2-0.1,0.3c-0.1,0.2-0.1,0.2-0.1,0.2L19,13.7
	c0,0-0.1-0.1-0.2-0.3c-0.1-0.2-0.1-0.3-0.1-0.3s0,0.3-0.2,0.5c-0.2,0.2-0.2,0.2-0.2,0.2s-0.4-0.1-0.4-0.1c0,0-0.1-0.2-0.2-0.4
	c-0.1-0.2-0.1-0.2-0.1-0.2s0,0.3-0.1,0.5C17.4,13.8,17.1,13.8,17,13.6z"/>
    <path class="st4" d="M16.5,10.5c0-0.1,0.1-0.2,0.2-0.2c0.2-0.2,0.5-0.2,0.8-0.2l0.1,0l0,0.1c0,0.1,0,0.1,0,0.2c0,0.2,0,0.3,0,0.5
	c0,0.2-0.1,0.3-0.1,0.5c0,0.2-0.1,0.4-0.1,0.7l0,0l0,0c-0.1,0.1-0.2,0.2-0.4,0.2c-0.2,0.1-0.6,0-0.7-0.3c-0.2-0.2-0.1-0.6,0-0.9
	c0-0.1,0-0.1,0.1-0.2C16.4,10.7,16.5,10.6,16.5,10.5z"/>
    <path class="st0" d="M17.5,10.1c0,0,0.1,0.3,0,0.6c-0.1,0.3-0.2,1.2-0.2,1.2s-0.1,0.1-0.3,0.2c-0.2,0-0.5,0-0.6-0.2
	c-0.1-0.2-0.1-0.5,0-0.8c0.1-0.3,0.2-0.6,0.2-0.6S16.7,10.1,17.5,10.1z"/>
    <path class="st4" d="M18.2,10.2c0.2,0,0.3,0,0.5,0.1c0.1,0,0.2,0.1,0.3,0.2C19,10.6,19,10.9,19,11c0,0.3,0,0.9-0.1,1.1
	c0,0.1-0.1,0.1-0.2,0.2c-0.2,0.1-0.4,0.1-0.7,0.1c-0.2,0-0.6-0.1-0.7-0.3c0-0.1,0-0.1,0-0.2c0-0.1,0-0.2,0-0.3c0-0.1,0-0.3,0.1-0.4
	c0-0.1,0.1-0.2,0.1-0.3c0-0.1,0.1-0.3,0.2-0.4C17.7,10.4,18,10.2,18.2,10.2L18.2,10.2L18.2,10.2z"/>
    <path class="st9" d="M18.2,10.3c0,0-0.4,0.1-0.5,0.3c-0.1,0.2-0.2,0.5-0.2,0.7c-0.1,0.2-0.1,0.7-0.1,0.8c0,0.1,0.2,0.2,0.6,0.3
	c0.4,0.1,0.6,0,0.7-0.3c0.1-0.2,0.1-1,0.1-1.1c0-0.1,0-0.4-0.1-0.5C18.7,10.4,18.5,10.2,18.2,10.3z"/>
    <path class="st10" d="M18.2,10.3c0,0-0.3,0.1-0.4,0.2c0.2,0,0.6,0,0.7,0.2c0.2,0.3,0.1,1.2-0.2,1.6c0.2,0,0.4-0.1,0.5-0.3
	c0.1-0.2,0.1-1,0.1-1.1c0-0.1,0-0.4-0.1-0.5C18.7,10.4,18.5,10.2,18.2,10.3z"/>
    <path class="st4" d="M18.8,12.1c0-0.2,0-0.3,0-0.5c0-0.1,0-0.2,0-0.3c0-0.1,0-0.1,0-0.2c0-0.2,0.1-0.3,0.2-0.4
	c0.1-0.1,0.2-0.2,0.3-0.2c0.2-0.1,0.4-0.1,0.6,0c0.1,0.1,0.2,0.2,0.3,0.3c0,0,0,0.1,0,0.2c0.1-0.1,0.1-0.2,0.2-0.2
	c0.1-0.1,0.2-0.1,0.4-0.1c0.2,0,0.4,0.1,0.5,0.3c0,0.1,0.1,0.1,0.1,0.2c0.1-0.1,0.2-0.3,0.3-0.4c0.2-0.1,0.4-0.1,0.5,0
	c0,0,0,0,0.1,0.1c0-0.1,0-0.1,0-0.2c0-0.1,0-0.1,0.1-0.2c0,0,0-0.1,0-0.1c0-0.1,0.1-0.1,0.2-0.1c0.1,0,0.2-0.1,0.3,0
	c0.1,0,0.2,0.1,0.2,0.1c0,0,0.1,0.1,0.1,0.1c0.1,0.1,0.1,0.4,0.1,0.5c0,0.1,0,0.1,0,0.2c0,0.1,0,0.2,0,0.3c0,0.3-0.1,0.5-0.3,0.7
	c-0.1,0.1-0.3,0.2-0.5,0.2c-0.1,0-0.1,0-0.1-0.1c0,0-0.1,0.1-0.1,0.1c-0.1,0.1-0.5,0.1-0.7,0.1c-0.1,0-0.2,0-0.3-0.1
	c0,0-0.1,0.1-0.1,0.1c-0.1,0.1-0.2,0.1-0.3,0.1c-0.1,0-0.2,0-0.3,0c-0.1,0-0.2,0-0.3,0c-0.1,0-0.2,0-0.2-0.1c0,0,0,0,0,0
	c0,0-0.1,0.1-0.1,0.1c-0.1,0-0.2,0-0.3,0c-0.2,0-0.3,0-0.5,0c-0.1,0-0.3-0.1-0.4-0.2C18.8,12.3,18.8,12.2,18.8,12.1z"/>
    <path class="st0" d="M19.4,10.6c0,0-0.2,0.1-0.3,0.2C19,11,19,11,18.9,11.2c0,0.2-0.1,0.9-0.1,0.9s-0.1,0.2,0.4,0.2
	c0.4,0.1,0.6,0.1,0.7,0c0.1,0,0.2-0.3,0.2-0.3s0,0.2,0,0.3c0,0.1,0.5,0.1,0.7,0.1c0.2,0,0.3-0.1,0.3-0.2c0-0.1,0-0.2,0-0.4
	c0-0.2,0-0.2,0-0.2s0.1,0.3,0.1,0.4c0,0.1,0.1,0.2,0.2,0.2s0.5-0.1,0.7-0.1c0.1-0.1,0.1-0.1,0.1-0.1s0-0.1,0-0.2c0-0.2,0-0.2,0-0.2
	s0.1,0.1,0.1,0.2c0,0.1,0,0.2,0,0.2s0.1,0.2,0.5-0.1c0.4-0.3,0.3-0.9,0.3-1c0-0.1-0.1-0.4-0.1-0.4c-0.1-0.1-0.1-0.2-0.3-0.2
	c-0.2,0-0.3,0.1-0.3,0.1c0,0-0.1,0.4-0.1,0.5c0,0.1,0,0.2,0,0.2s-0.1-0.2-0.2-0.3c-0.1-0.1-0.3-0.1-0.4,0c-0.1,0.1-0.2,0.3-0.3,0.4
	c-0.1,0.1-0.1,0.2-0.1,0.2s-0.1-0.3-0.2-0.4c-0.1-0.1-0.2-0.2-0.4-0.3c-0.2,0-0.5,0.2-0.5,0.3c-0.1,0.1-0.1,0.2-0.1,0.2
	s0-0.3-0.1-0.5C20,10.7,19.8,10.5,19.4,10.6z"/>
    <path class="st4" d="M20.9,7c0.3,0,0.6,0.3,0.6,0.7c0,0.4-0.3,0.7-0.6,0.7c-0.3,0-0.6-0.3-0.6-0.7c0-0.1,0-0.1,0-0.2
	c0,0,0-0.4,0.2-0.6c0.1-0.2,0.3-0.2,0.4-0.2c0.1,0,0.2,0,0.2,0c0.1,0,0.1,0.1,0.1,0.1s-0.1-0.1-0.3-0.1S20.6,6.9,20.5,7
	c0,0.1,0,0.1-0.1,0.2C20.6,7.1,20.8,7,20.9,7z"/>
    <path class="st0" d="M20.9,7c0.3,0,0.5,0.3,0.5,0.6s-0.2,0.6-0.5,0.6c-0.3,0-0.5-0.3-0.5-0.6S20.6,7.1,20.9,7z"/>
    <path class="st4" d="M21,7.3c0.2,0,0.3,0.1,0.3,0.3C21.3,7.8,21.2,8,21,8c-0.2,0-0.3-0.1-0.3-0.3C20.7,7.5,20.8,7.3,21,7.3z"/>
    <path class="st0" d="M21,7.5c0,0,0.1,0.1,0.1,0.1c0,0.1,0,0.1-0.1,0.1s-0.1-0.1-0.1-0.1C20.9,7.6,21,7.5,21,7.5z"/>
    <path class="st4" d="M25.2,8.2l-0.3,0c0.1,0,0.1,0.1,0.2,0.1c0.1,0.1,0.2,0.3,0.3,0.5c0.2,0.3,0.2,0.7,0.2,1.1
	c0,0.6-0.2,1.1-0.6,1.6c-0.4,0.5-0.9,0.8-1.4,1.1c-0.2,0.1-0.4,0.2-0.6,0.2c-0.1,0-0.2,0-0.2,0.1l-0.1,0c-0.2,0.2-0.3,0.3-0.5,0.4
	c-0.1,0-0.1,0.1-0.2,0.1c-0.1,0.1-0.2,0.1-0.3,0.2c-0.3,0.2-0.5,0.3-0.8,0.5c-0.8,0.4-1.6,0.6-2.4,0.6c-0.6,0-1.4,0-2-0.3
	c-0.3-0.2-0.5-0.4-0.6-0.8c0-0.2,0.1-0.5,0.2-0.6c0.1-0.1,0.1-0.1,0.2-0.2c0,0,0.1-0.1,0.1-0.1l0.1-0.1c0.1,0.3,0.1,0.5,0.3,0.8l0,0
	c0,0,0,0,0,0c0.1,0,0.2,0.1,0.3,0.1c0,0,0.1,0,0.1,0c0.1,0,0.2,0,0.2,0c0.3,0,0.5,0,0.8,0.1c0.7,0,1.5-0.1,2.2-0.3
	c1-0.4,1.9-0.9,2.4-1.9c0.1-0.1,0.1-0.3,0.2-0.4c0.1-0.4,0.2-0.9,0.3-1.3c0,0,0,0,0,0c0,0,0,0,0,0c-0.1,0.4-0.3,0.8-0.7,1.1
	c-0.7,0.5-1.5,0.6-2.3,0.4c-0.2,0-0.4-0.1-0.6-0.1c-0.2-0.1-0.5-0.1-0.7-0.2c-0.2-0.1-0.4-0.1-0.6-0.2c-0.2,0-0.4-0.1-0.5-0.1
	c-0.3,0-0.6,0-0.9,0c-0.1,0-0.3,0-0.4,0.1l-0.1,0.1c0,0.1-0.1,0.1-0.1,0.2c0,0.1-0.1,0.3-0.1,0.4l-0.1,0.2l-0.1-0.1
	c-0.1-0.1-0.2-0.2-0.3-0.3c-0.2-0.2-0.2-0.5-0.1-0.8c0.2-0.3,0.5-0.5,0.8-0.6l0-0.1c0-0.1,0.1-0.2,0.1-0.2c0,0,0-0.1,0.1-0.1
	c0,0,0,0,0-0.1c0,0,0,0,0,0c0,0,0,0,0-0.1c0-0.1,0-0.1,0-0.2c0-0.2,0.1-0.4,0.3-0.5c0.1-0.1,0.3-0.1,0.5-0.1c0.1,0,0.1,0,0.2,0.1
	l0,0c0.3-0.1,0.6-0.2,0.9-0.2c0.3,0,0.5,0,0.8,0c0.1,0,0.2,0,0.3,0.1L20,8.3c0,0,0,0,0.1,0l0.1,0c0.3-0.1,0.6-0.2,0.8-0.4
	c0.2-0.2,0.3-0.6,0.3-0.9c0-0.1,0-0.3,0-0.4c0-0.2-0.1-0.3-0.3-0.4c-0.1,0-0.1-0.1-0.2-0.1l-0.2,0c-0.3,0.1-0.5,0.1-0.8,0
	c-0.4-0.1-0.7-0.3-0.8-0.6C18.9,5.2,19,5,19.1,4.7c0,0.2,0.1,0.3,0.2,0.4c0.1,0.1,0.2,0.1,0.3,0.2c0.1,0,0.1,0,0.1,0
	c0.2,0,0.4-0.1,0.6-0.2C20.6,5,20.8,4.8,21,4.7c0.1-0.1,0.2-0.1,0.3-0.2c0,0,0,0-0.1,0c-0.1,0-0.3,0-0.4,0.1l-0.6,0.2l0.4-0.4
	c0.1-0.1,0.2-0.1,0.3-0.2C21.3,4.1,21.5,4,21.8,4c0.1,0,0.3,0,0.4,0c0,0,0,0,0,0l-0.3-0.3l0.4,0.1c0.1,0,0.2,0,0.2,0.1
	c0.2,0.1,0.4,0.2,0.5,0.3c0.1,0.1,0.1,0.2,0.2,0.2c0.1,0.2,0.2,0.3,0.3,0.5c0,0,0,0,0,0c0,0,0-0.1,0.1-0.1c0.1-0.2,0.2-0.4,0.3-0.5
	c0.1-0.2,0.2-0.3,0.3-0.5c0.1-0.1,0.2-0.3,0.3-0.4c0.1-0.1,0.3-0.2,0.5-0.3c0.2-0.1,0.4-0.3,0.7-0.4c0.3-0.2,0.7-0.3,1-0.5
	c0.2-0.1,0.5-0.2,0.7-0.3c0.1,0,0.3-0.1,0.5,0c0.1,0.1,0,0.4,0,0.5c-0.1,0.2-0.3,0.5-0.4,0.7c-0.2,0.3-0.4,0.5-0.6,0.7
	c-0.3,0.3-0.6,0.6-0.9,0.8c-0.2,0.2-0.5,0.3-0.7,0.5c-0.2,0.1-0.5,0.3-0.7,0.4l0,0.1c0,0.1,0,0.2-0.1,0.3c0,0.2-0.1,0.5-0.1,0.7
	c0,0.2,0,0.6,0,0.8C24.5,7.8,24.8,8,25.2,8.2z"/>
    <path class="st5" d="M23.6,5.2c0,0-0.3-0.6-0.6-0.9c-0.4-0.3-0.7-0.4-0.7-0.4s0.2,0.2,0.2,0.2c0.1,0.1,0,0.1,0,0.1S22.3,4,21.8,4.1
	c-0.6,0.1-1,0.4-1,0.4s0.4-0.1,0.6-0.1c0.2,0,0.4,0.2,0.4,0.2s-0.3,0-0.8,0.3c-0.5,0.3-1,0.7-1.4,0.6C19.1,5.3,19.1,5,19.1,5
	S19,5.9,19.8,6c0.9,0.2,1.7-0.6,2-0.8C22,5.1,22.3,5,22.7,5c0.3,0,0.4,0.1,0.4,0.1s-0.3-0.1-0.7,0c-0.4,0.1-0.5,0.2-0.7,0.4
	c-0.2,0.1-0.3,0.3-0.5,0.4C20.9,6,20.8,6,20.8,6s0.5,0,0.6,0.6c0.1,0.5,0,1.2-0.3,1.5c-0.3,0.3-0.9,0.4-0.9,0.4s0.2,0.2,0.3,0.4
	c0,0.2-0.1,0.4-0.1,0.4s0.1-0.5-0.1-0.6c-0.2-0.2-0.4-0.2-0.6-0.1c-0.3,0.1-0.6,0.3-0.6,0.3s0-0.1,0.2-0.2c0.1-0.1,0.4-0.2,0.4-0.2
	s-0.3-0.1-1.1-0.1c-0.7,0.1-1.4,0.5-1.4,0.5s0.1-0.1,0.2-0.2c0.1-0.1,0.2-0.1,0.2-0.1s-0.2-0.2-0.5,0c-0.3,0.2-0.3,0.6-0.3,0.6
	l0.2-0.1c0,0-0.2,0.2-0.2,0.3c-0.1,0.1-0.1,0.2-0.1,0.2s0.5-0.1,1.1-0.1c0.6,0.1,0.9,0.2,0.9,0.2s-0.7-0.2-1.2-0.1s-1.4,0.1-1.6,0.7
	c-0.3,0.6,0.4,0.9,0.4,0.9s0.1-0.3,0.1-0.4c0-0.1,0.1-0.3,0.1-0.3s-0.1,0.1-0.2,0.1c-0.1,0.1-0.1,0.1-0.1,0.1s0-0.1,0.3-0.3
	c0.3-0.2,0.9-0.3,1.5-0.2c0.6,0.1,1.9,0.5,2.5,0.6c0.6,0.1,1.4,0.2,2.2-0.4C23.4,10,23.4,9,23.4,9s-0.1,0-0.2,0.1
	c-0.1,0.1-0.1,0.1-0.1,0.1s0-0.2,0.2-0.3C23.6,8.8,24,9.1,24,9.1S23.8,9,23.7,9c-0.1,0-0.2,0-0.2,0s0.1,1-0.3,2
	c-0.3,1-1,1.8-2.6,2.4c-1.6,0.5-3.3,0.3-3.4,0.2c-0.1,0-0.5-0.1-0.7-0.2c-0.2-0.1-0.1-0.2-0.1-0.2s0.1,0.1,0.1,0.1
	c0.1,0.1,0.2,0.1,0.2,0.1s-0.1-0.3-0.2-0.4c0-0.1-0.1-0.2-0.1-0.2s-0.5,0.3-0.4,0.7c0,0.4,0.5,1,2.4,1c1.9,0,3.2-1.1,3.6-1.3
	c0.4-0.2,1-1,1.3-1.5c0.3-0.5,0.4-0.7,0.4-0.7s-0.1,0.5-0.3,0.8c-0.2,0.4-0.7,0.9-0.7,0.9s1.3-0.3,2.2-1.3c0.8-1,0.6-2.1,0.4-2.5
	c-0.2-0.4-0.4-0.5-0.6-0.6c-0.2-0.1-0.4-0.1-0.4-0.1s0.1-0.1,0.3-0.1c0.1,0,0.2,0.1,0.2,0.1S24.4,8,24.3,7.4
	c-0.2-0.5,0.1-1.8,0.1-1.8L24,5.8c0,0,0.2-0.3,1.1-0.8c1-0.5,1.8-1.5,2.2-2c0.4-0.5,0.5-0.9,0.4-1c-0.1-0.1-0.4,0-1.1,0.3
	c-0.6,0.3-1.8,0.9-2.1,1.2C24.2,3.8,23.8,4.9,23.6,5.2z"/>
    <path class="st11" d="M23.6,5.2c0-0.1-0.3-0.6-0.6-0.9l0,0c-0.4-0.3-0.7-0.4-0.7-0.4s0.2,0.2,0.2,0.2c0.1,0.1,0,0.1,0,0.1
	S22.3,4,21.8,4.1c-0.2,0-0.3,0.1-0.4,0.1c0,0-0.1,0-0.1,0.1c-0.2,0.1-0.3,0.2-0.4,0.2c0,0-0.1,0.1-0.1,0.1s0,0,0.1,0
	c0.1,0,0.3-0.1,0.4-0.1c0,0,0.1,0,0.1,0c0,0,0.1,0,0.1,0c0.2,0,0.3,0.2,0.3,0.2s-0.1,0-0.2,0c0,0-0.1,0-0.1,0
	c-0.1,0-0.2,0.1-0.3,0.2c0,0-0.1,0-0.1,0.1C21,4.9,20.9,4.9,20.8,5c0,0-0.1,0.1-0.1,0.1c0,0,0,0,0,0c0,0,0,0,0,0c0,0-0.1,0-0.1,0.1
	c0,0-0.1,0-0.1,0c0,0-0.1,0-0.1,0.1c0,0-0.1,0-0.1,0.1c-0.2,0.1-0.4,0.1-0.6,0.1C19.1,5.3,19.1,5,19.1,5s-0.2,0.8,0.7,1
	c0.1,0,0.3,0,0.4,0c0.1,0,0.1,0,0.2,0C20.7,6,21,5.8,21.2,5.7c0,0,0,0,0,0c0,0,0.1-0.1,0.1-0.1c0.2-0.1,0.3-0.2,0.4-0.3c0,0,0,0,0,0
	C22,5.1,22.3,5,22.6,5C22.9,5,23,5.1,23,5.1c0.1,0,0.1,0,0.1,0S23,5,22.9,4.9c-0.1-0.1-0.4-0.2-0.4-0.2s0.3,0,0.6,0.2
	C23.4,5,23.6,5.2,23.6,5.2z"/>
    <path class="st6" d="M21.9,6.2c0,0,0.2-0.4,0.9-0.4c0.7,0,0.8,0.1,0.9,0.4c0.1,0.2,0.1,0.5,0.1,0.7C23.8,7,23.7,7,23.7,7
	s-0.5-0.6-0.8-0.7C22.4,6.2,22.3,6.1,21.9,6.2z"/>
    <path class="st6" d="M20.3,8.6C20.3,8.6,20.3,8.6,20.3,8.6c-0.1-0.1-0.2-0.2-0.3-0.2C20,8.5,20.1,8.7,20.3,8.6z"/>
    <path class="st6" d="M21.4,5.7c-0.1,0-0.2,0.1-0.2,0.1C20.9,6,20.8,6,20.8,6s0.5,0,0.6,0.6c0.1,0.5,0,1.2-0.3,1.5
	c-0.3,0.3-0.9,0.4-0.9,0.4s0.1,0.1,0.2,0.2c0.3-0.1,0.7-0.4,0.9-0.6c0.2-0.3,0.3-1,0.3-1.5C21.5,6.1,21.4,5.9,21.4,5.7z"/>
    <path class="st6" d="M24.2,7.2c-0.1-0.6,0.2-1.6,0.2-1.6L24,5.8c0,0,0.2-0.3,1.1-0.8c1-0.5,1.8-1.5,2.2-2c0.4-0.5,0.5-0.9,0.4-1
	c0,0-0.1,0-0.1,0c0,0.2-0.1,0.4-0.3,0.5c-0.3,0.3-1.1,0.7-1.1,0.7s-1.8,1.6-2,1.7C24.2,5,24,5.1,23.9,5.5C23.8,5.9,24,6.4,24,6.4
	L24,6C24,6,24,6.7,24.2,7.2z M23.3,10.8c0,0.1,0,0.1-0.1,0.2c-0.3,1-1,1.8-2.6,2.4c-0.2,0.1-0.4,0.1-0.5,0.2
	c-0.2,0.3-0.5,0.6-0.7,0.9c1.4-0.3,2.4-1.1,2.7-1.3c0.4-0.2,1-1,1.3-1.5c0.3-0.5,0.4-0.7,0.4-0.7s-0.1,0.5-0.3,0.8
	c-0.2,0.4-0.7,0.9-0.7,0.9s1.3-0.3,2.2-1.3c0.8-1,0.6-2.1,0.4-2.5c-0.2-0.4-0.4-0.5-0.6-0.6c-0.2-0.1-0.4-0.1-0.4-0.1
	s0.1-0.1,0.3-0.1c0.1,0,0.2,0.1,0.2,0.1s-0.1-0.1-0.3-0.2c-0.1,0-0.2,0-0.4-0.1c-0.4-0.1-0.6,0-0.6,0S23.4,7.2,23.1,7
	c-0.3-0.2-0.6,0-0.6,0s0.1-0.2,0.2-0.2s0.4,0,0.4,0s-0.2-0.2-0.5-0.1c-0.2,0.1-0.4,0.1-0.5,0.8c-0.2,0.7,0.2,1.1,0.3,1.2
	S22.1,9,22.3,9s0.8-0.4,1.1-0.7c0.3-0.2,0.6-0.4,1.2,0.3c0.6,0.7,0.3,1.7,0,2.2c-0.3,0.5-1.2,1.1-1.2,1.1s0.2-0.3,0.3-0.6
	c0.1-0.3,0.2-0.8,0.2-0.8S23.6,10.6,23.3,10.8z"/>
    <path class="st12" d="M20.4,8.6c0.1,0.1,0.1,0.2,0.1,0.3c0,0.2-0.1,0.4-0.1,0.4S20.5,8.8,20.4,8.6c-0.3-0.1-0.4-0.1-0.7-0.1
	c-0.3,0.1-0.6,0.3-0.6,0.3s0-0.1,0.2-0.2c0.1-0.1,0.4-0.2,0.4-0.2s-0.3-0.1-1.1-0.1s-1.4,0.5-1.4,0.5s0.1-0.1,0.2-0.2
	c0.1-0.1,0.2-0.1,0.2-0.1s-0.2-0.2-0.5,0c-0.3,0.2-0.3,0.6-0.3,0.6l0.2-0.1c0,0-0.2,0.2-0.2,0.3c-0.1,0.1-0.1,0.2-0.1,0.2
	s0.5-0.1,1.1-0.1c0.6,0.1,0.9,0.2,0.9,0.2s-0.7-0.2-1.2-0.1s-1.4,0.1-1.6,0.7c-0.3,0.6,0.4,0.9,0.4,0.9s0.1-0.3,0.1-0.4
	c0-0.1,0.1-0.3,0.1-0.3s-0.1,0.1-0.2,0.1c-0.1,0.1-0.1,0.1-0.1,0.1s0-0.1,0.3-0.3c0.3-0.2,0.9-0.3,1.5-0.2c0.6,0.1,1.9,0.5,2.5,0.6
	c0.6,0.1,1.4,0.2,2.2-0.4C23.4,10,23.4,9,23.4,9s-0.1,0-0.2,0.1c-0.1,0.1-0.1,0.1-0.1,0.1s0-0.2,0.2-0.3c0.3-0.1,0.6,0.2,0.6,0.2
	S23.8,9,23.7,9c-0.1,0-0.2,0-0.2,0s0.1,1-0.3,2c-0.3,1-1,1.8-2.6,2.4c-1.6,0.5-3.3,0.3-3.4,0.2c-0.1,0-0.5-0.1-0.7-0.2
	c-0.2-0.1-0.1-0.2-0.1-0.2s0.1,0.1,0.1,0.1c0.1,0.1,0.2,0.1,0.2,0.1s-0.1-0.3-0.2-0.4c0-0.1-0.1-0.2-0.1-0.2s-0.5,0.3-0.4,0.7
	c0,0.4,0.5,1,2.4,1c1.9,0,3.2-1.1,3.6-1.3c0.4-0.2,0.8-0.9,1.1-1.3c0.1-0.2,0.3-0.5,0.4-0.7c0.1-0.2,0.1-0.2,0.1-0.2l0,0
	c0.2-0.5,0.5-1.5,0.2-2.1c-0.4-0.6-1,0.1-1.3,0.2c-0.3,0.1-0.9,0.2-1.7-0.2C20.7,8.7,20.5,8.7,20.4,8.6z"/>
    <path class="st13" d="M16.2,13c-0.1,0.1-0.1,0.3-0.1,0.4c0,0.4,0.5,1,2.4,1c1.9,0,3.2-1.1,3.6-1.3c0.2-0.1,0.5-0.4,0.7-0.7
	c-0.1,0.1-0.3,0.2-0.4,0.3c-0.9,0.6-1,0.6-1.5,0.9c-0.5,0.2-2.8,0.9-3.9,0.4C16.4,13.7,16.2,13.3,16.2,13z M23.8,9c0,0-0.1,0-0.1,0
	c-0.1,0-0.2,0-0.2,0s0.1,0.9-0.2,1.8c0.1-0.1,0.1-0.3,0.2-0.5C23.6,9.9,23.7,9.2,23.8,9C23.8,9,23.8,9,23.8,9z M23.1,9.1
	c0-0.1,0-0.2,0.2-0.2c0.2-0.1,0.5,0.1,0.6,0.1c0,0,0.1,0,0.1,0s-0.3-0.4-0.7-0.2c-0.4,0.2-0.4,0.5-0.4,0.5S22.9,9.3,23.1,9.1
	C23,9.1,23.1,9.1,23.1,9.1z M15.9,10.6c0.1,0.4,0.4,0.6,0.4,0.6s0.1-0.3,0.1-0.4c0-0.1,0.1-0.3,0.1-0.3s-0.1,0.1-0.2,0.1
	c-0.1,0.1-0.1,0.1-0.1,0.1s0-0.1,0.3-0.3c0.3-0.2,0.9-0.3,1.5-0.2c0.6,0.1,1.9,0.5,2.5,0.6c0.6,0.1,1.4,0.2,2.2-0.4
	C23.4,10,23.4,9,23.4,9S23.3,9,23.2,9c0,0-0.1,0.1-0.1,0.1c0.1,0,0.1,0,0.1,0s0,0.1,0,0.2c0,0.1-0.2,0.6-0.6,0.9
	c-0.3,0.3-1.1,0.7-2.1,0.4c-1-0.3-2.7-0.8-3.6-0.6C16.4,10.2,16,10.4,15.9,10.6z M17,9.2c-0.1,0.1-0.1,0.1-0.2,0.2
	c-0.1,0.1-0.1,0.2-0.1,0.2s0.5-0.1,1.1-0.1c0.3,0,0.5,0.1,0.7,0.1C18.8,9.7,19,9.7,19,9.7s-0.4-0.2-1-0.4C17.5,9.2,17.1,9.2,17,9.2z
	 M17.3,8.4c-0.1,0-0.1,0-0.2,0.1c-0.3,0.2-0.3,0.6-0.3,0.6l0.1,0l0.2-0.2c0,0-0.1-0.1,0-0.2C17.2,8.6,17.3,8.5,17.3,8.4z M19,9.2
	c0,0,0.3-0.5,0.8-0.5c0.4,0,0.5,0.3,0.5,0.5c0,0.2-0.2,0.3-0.2,0.3S19.3,9.6,19,9.2z"/>
    <path class="st4" d="M19.1,9.2c0,0,0.2-0.3,0.6-0.4c0.4-0.1,0.4,0.3,0.4,0.3c0,0.1-0.1,0.2-0.1,0.2V9.2c0,0-0.2,0.1-0.4,0.1
	c-0.2,0-0.3-0.2-0.3-0.2S19.2,9.1,19.1,9.2z"/>
    <path class="st4" d="M22,6c0,0,0.3-0.4,1-0.4s0.8,0.7,0.8,0.8c0,0.2-0.1,0.5-0.1,0.5S23.5,6.6,23,6.2C22.5,5.9,22.1,6,22,6z"/>
    <path class="st4" d="M24,5.3c0,0,0.2-0.5,0.5-0.9c0.3-0.4,0.6-0.8,1.3-1.1c0.7-0.4,1.5-0.6,1.5-0.6S27.1,2.8,27,2.9
	c-0.1,0-0.2,0.1-0.2,0.1s-0.4,0.6-0.7,0.9s-0.9,0.8-1.3,1C24.5,5.1,24,5.3,24,5.3z"/>
    <path class="st7" d="M26.6,3.1c-0.3,0.1-0.6,0.2-0.9,0.4C25.5,3.6,25.2,3.8,25,4c-0.2,0.2-0.3,0.4-0.5,0.5c0,0-0.1,0.1-0.1,0.1
	c-0.1,0.1-0.1,0.2-0.2,0.3c0.2-0.1,0.4-0.2,0.5-0.3c0.2-0.1,0.4-0.3,0.6-0.4c0.2-0.2,0.4-0.4,0.6-0.5c0.1-0.1,0.2-0.2,0.3-0.3
	C26.4,3.3,26.5,3.2,26.6,3.1C26.6,3.1,26.6,3.1,26.6,3.1z"/>
    <path class="st4" d="M22.7,7c0.4,0,0.7,0.4,0.7,0.9c0,0.5-0.3,0.9-0.7,0.9S22,8.4,22,7.9c0-0.1,0-0.1,0-0.2c0,0,0-0.5,0.2-0.7
	c0.1-0.3,0.4-0.2,0.4-0.3c0.1,0,0.2,0,0.3,0.1C23,6.8,23,6.9,23,6.9s-0.1-0.1-0.4-0.1c-0.2,0-0.3,0.1-0.4,0.3c0,0.1-0.1,0.2-0.1,0.2
	C22.3,7.1,22.5,7,22.7,7z"/>
    <path class="st0" d="M22.7,7.1c0.3,0,0.6,0.4,0.6,0.8c0,0.4-0.3,0.8-0.6,0.8c-0.3,0-0.6-0.4-0.6-0.8C22.1,7.4,22.4,7.1,22.7,7.1z"/>
    <path class="st4" d="M22.7,7.3c0.2,0,0.3,0.2,0.3,0.4c0,0.2-0.2,0.4-0.3,0.4c-0.2,0-0.3-0.2-0.3-0.4C22.4,7.5,22.5,7.3,22.7,7.3z"/>
    <path class="st0" d="M22.7,7.5c0.1,0,0.1,0.1,0.1,0.1c0,0.1,0,0.1-0.1,0.1c-0.1,0-0.1-0.1-0.1-0.1C22.6,7.5,22.7,7.5,22.7,7.5z"/>
    <path class="st5" d="M22.5,9c0,0,0-0.1,0.2-0.5C22.9,8.2,23.4,8,23.5,8c0.2-0.1,0.4-0.1,0.4,0c0.1,0,0.1,0.3-0.3,0.5
	c-0.4,0.2-0.6,0.3-0.7,0.4C22.8,8.9,22.5,9.1,22.5,9z"/>
    <path class="st6" d="M22.5,8.9c0-0.1,0.1-0.2,0.2-0.4C22.9,8.2,23.4,8,23.6,8c0.2-0.1,0.4-0.1,0.4,0c0,0,0.1,0.1,0,0.2
	c-0.3-0.1-0.5,0-0.6,0.2C23.1,8.5,22.7,8.8,22.5,8.9z"/>
    <path class="st4" d="M22.5,8.9c0,0,0-0.4,0.5-0.8c0.5-0.3,0.9-0.2,0.9-0.2S23,7.9,22.5,8.9z"/>
    <path class="st4" d="M23.4,8.4c0,0,0-0.2,0.3-0.3c0.2-0.1,0.3,0,0.3,0S23.6,8.2,23.4,8.4z"/>
    <path class="st4" d="M23.6,8.4c0,0,0-0.1,0.3-0.2c0.2-0.1,0.3,0,0.3,0S23.8,8.3,23.6,8.4z"/>
    <path class="st4" d="M24.1,8.4c0,0,0.1-0.1,0.2-0.1c0.1,0,0.1,0.1,0.1,0.1S24.2,8.4,24.1,8.4z"/>
    <path class="st4" d="M20.3,6.4c0,0,0-0.3,0.4-0.3s0.6,0.2,0.6,0.2c0.1,0.1,0.1,0.2,0.1,0.3c0,0.1,0,0.1,0,0.1s-0.1-0.3-0.5-0.3
	S20.3,6.9,20.3,7c0,0.1-0.1,0.3-0.1,0.3S20.1,6.9,20.3,6.4z"/>
    <path class="st0" d="M17.9,10.7c0,0,0,0.1-0.1,0.4s-0.1,0.5,0,0.8c0.1,0.2-0.2,0.3-0.2,0.2c-0.1-0.1,0-0.4,0-0.6
	c0-0.1,0.1-0.5,0.1-0.6C17.7,10.8,17.8,10.5,17.9,10.7z"/>
    <path class="st0" d="M17.8,8.8l0.1,1.6l1.2-1.1L18,10.6l1.6,0.1L18,10.8l1.1,1.2l-1.2-1.1l-0.1,1.6l-0.1-1.6L16.5,12l1.1-1.2
	l-1.6-0.1l1.6-0.1l-1.1-1.2l1.2,1.1L17.8,8.8z"/>
    <path class="st0" d="M23,9.2l0.1,1.2l0.9-0.8l-0.8,0.9l1.2,0.1l-1.2,0.1l0.8,0.9L23,10.7L23,11.9l-0.1-1.2L22,11.5l0.8-0.9l-1.2-0.1
	l1.2-0.1L22,9.6l0.9,0.8L23,9.2z"/>
    <path class="st6" d="M22.8,19.3l0,0.1c1,0,1.9-0.2,2.7-0.6c0.1,0,0.1-0.1,0.2-0.1c-0.6-0.3-1.2-0.9-1.3-1.8
	c-0.5-2.6,0.3-4.1,0.5-5.2c0-0.1,0-0.2,0-0.3c-0.4,0.4-0.8,0.7-1.3,0.9c-0.2,0.1-0.4,0.2-0.6,0.2c-0.1,0-0.2,0-0.2,0.1l-0.1,0
	c-0.2,0.2-0.3,0.3-0.5,0.4c-0.1,0-0.1,0.1-0.2,0.1c-0.1,0.1-0.1,0.1-0.2,0.2c0.3,0.2,0.8,0.5,0.9,1c0,0,0,0,0,0c0,0,0,0,0,0
	c0,0,0,0,0,0c0,0,0,0,0,0c0,0,0,0,0,0c0,0,0,0,0,0c0,0,0,0,0,0c0,0,0,0,0,0c0,0,0,0.1,0,0.1v0c0,0,0,0,0,0c0,0,0,0,0,0v0
	c0,0,0,0,0,0l0,0l0,0c0,0,0,0,0,0l0,0l0,0l0,0v0l0,0v0v0c0,0,0,0,0,0v0v0l0,0v0c0,0,0,0,0,0v0v0v0c0,0,0,0,0,0.1c0,0,0,0,0,0l0,0
	l0,0l0,0l0,0l0,0v0l0,0v0l0,0l0,0v0v0l0,0v0l0,0v0l0,0l0,0l0,0c0,0,0,0.1,0,0.1v0v0v0c0,0,0,0,0,0.1c0,0,0,0,0,0v0l0,0
	C23.1,17.2,22.8,18.2,22.8,19.3z"/>
    <path class="st14" d="M0.3,3.6h4.2c1,0,2,0.1,2.9,0.3c0.9,0.2,1.7,0.6,2.4,1.1c0.7,0.5,1.2,1.2,1.6,2c0.4,0.8,0.6,1.8,0.6,3
	c0,1-0.2,1.9-0.6,2.7c-0.4,0.8-0.9,1.4-1.6,2c-0.7,0.5-1.4,0.9-2.3,1.2s-1.8,0.4-2.7,0.4H0.3V3.6z M3.1,13.7h1.5
	c0.6,0,1.2-0.1,1.8-0.2c0.6-0.1,1.1-0.3,1.5-0.6c0.4-0.3,0.7-0.7,1-1.2c0.2-0.5,0.4-1.1,0.4-1.8c0-0.6-0.1-1.2-0.4-1.6
	C8.5,7.8,8.2,7.4,7.8,7.1C7.4,6.8,7,6.6,6.4,6.4C5.9,6.3,5.3,6.2,4.8,6.2H3.1V13.7z"/>
    <path class="st15" d="M33,7.8h2.6V9h0c0.1-0.2,0.2-0.3,0.4-0.5c0.2-0.2,0.3-0.3,0.6-0.5c0.2-0.1,0.5-0.2,0.7-0.3
	c0.3-0.1,0.6-0.1,0.9-0.1c0.7,0,1.2,0.1,1.7,0.3c0.4,0.2,0.7,0.5,1,0.9c0.2,0.4,0.4,0.8,0.5,1.3c0.1,0.5,0.1,1.1,0.1,1.6v4.8h-2.7
	v-4.3c0-0.3,0-0.5,0-0.8c0-0.3-0.1-0.5-0.2-0.8c-0.1-0.2-0.2-0.4-0.4-0.6c-0.2-0.1-0.4-0.2-0.8-0.2s-0.6,0.1-0.8,0.2
	c-0.2,0.1-0.4,0.3-0.5,0.5c-0.1,0.2-0.2,0.4-0.2,0.7s-0.1,0.5-0.1,0.8v4.4H33V7.8z"/>
    <path class="st16" d="M54,2.9h2.7v8.3l3-3.5H63l-3.5,3.9l3.6,4.8h-3.4l-3-4.4h0v4.4H54V2.9z"/>
    <path class="st16" d="M72.3,15c-0.4,0.6-1,1-1.6,1.3c-0.7,0.3-1.3,0.4-2.1,0.4c-0.7,0-1.3-0.1-1.9-0.3c-0.6-0.2-1.1-0.5-1.5-0.9
	c-0.4-0.4-0.8-0.9-1-1.5s-0.4-1.2-0.4-1.9c0-0.7,0.1-1.3,0.4-1.9c0.3-0.6,0.6-1,1-1.4c0.4-0.4,1-0.7,1.5-0.9
	c0.6-0.2,1.2-0.3,1.9-0.3c0.6,0,1.2,0.1,1.7,0.3c0.5,0.2,0.9,0.5,1.3,0.9c0.4,0.4,0.6,0.9,0.8,1.4c0.2,0.6,0.3,1.2,0.3,1.9V13h-6.3
	c0.1,0.5,0.3,0.9,0.7,1.2c0.4,0.3,0.8,0.4,1.3,0.4c0.4,0,0.8-0.1,1.1-0.3c0.3-0.2,0.6-0.5,0.8-0.8L72.3,15z M70,11.2
	c0-0.5-0.1-0.8-0.5-1.2c-0.3-0.3-0.7-0.5-1.2-0.5c-0.3,0-0.6,0-0.8,0.1c-0.2,0.1-0.4,0.2-0.6,0.4c-0.2,0.1-0.3,0.3-0.4,0.5
	c-0.1,0.2-0.1,0.4-0.1,0.6H70z"/>
    <path class="st16" d="M79.4,18c-0.2,0.5-0.4,0.9-0.5,1.2s-0.4,0.7-0.6,0.9c-0.3,0.3-0.6,0.4-1,0.6c-0.4,0.1-0.9,0.2-1.6,0.2
	c-0.7,0-1.4-0.1-2-0.3l0.4-2.2c0.4,0.2,0.8,0.3,1.3,0.3c0.3,0,0.5,0,0.7-0.1c0.2-0.1,0.3-0.2,0.5-0.3c0.1-0.1,0.2-0.3,0.3-0.5
	s0.2-0.4,0.3-0.6l0.2-0.5l-3.8-8.8h2.9l2.2,5.8h0l1.9-5.8h2.8L79.4,18z"/>
    <path class="st16" d="M49.9,13.1h-4.4V11h4.4V13.1z"/>
</svg>
