<?xml version="1.0" encoding="utf-8"?>
<!-- Generator: Adobe Illustrator 24.3.0, SVG Export Plug-In . SVG Version: 6.00 Build 0)  -->
<svg version="1.1" id="Laag_1" xmlns="http://www.w3.org/2000/svg" xmlns:xlink="http://www.w3.org/1999/xlink" x="0px" y="0px"
     viewBox="0 0 1693.3 370.2" style="enable-background:new 0 0 1693.3 370.2;" xml:space="preserve">
<style type="text/css">
	.st0{fill:#FFFFFF;}
</style>
    <path class="st0" d="M144.5,0v109.4l0.1,0.1c0,0.3-0.1,0.6-0.1,1c0,12.6,10.1,22.8,22.6,22.8c0.3,0,0.6-0.1,1-0.1l0.1,0.1h108.2
	c0.2,0,0.4,0.2,0.4,0.4v11.4c0,0.2-0.2,0.4-0.4,0.4H168.2l-0.1,0.1c-0.3,0-0.6-0.1-1-0.1c-12.5,0-22.6,10.2-22.6,22.8v0.3
	c0,0.2,0.1,0.4,0.1,0.6l-0.1,0.1v109c0,0.2-0.2,0.4-0.4,0.4h-11.4c-0.2,0-0.4-0.2-0.4-0.4v-109l-0.1-0.1c0-0.3,0.1-0.6,0.1-1
	c0-12.6-10.1-22.8-22.6-22.8c-0.3,0-0.6,0.1-1,0.1l-0.1-0.1H0.4c-0.2,0-0.4-0.2-0.4-0.4v-11.4c0-0.2,0.2-0.4,0.4-0.4h108.3l0.1-0.1
	c0.3,0,0.6,0.1,1,0.1c12.5,0,22.6-10.2,22.6-22.8c0-0.3-0.1-0.6-0.1-1l0.1-0.1V0"/>
    <path class="st0" d="M945.1,203.6c2.4,0,4.1,2,4.1,4.1v17.8c0,2.2-1.7,4.1-4.1,4.1h-32.6c-0.2,0-0.4,0.2-0.4,0.4v121.2
	c0,2.5-2,4.5-4.5,4.5h-19.2c-2.5,0-4.5-2-4.5-4.5V230.1c0-0.2-0.2-0.4-0.4-0.4h-32.8c-2.4,0-4.1-2-4.1-4.1v-17.8
	c0-2.2,1.7-4.1,4.1-4.1h94.4V203.6z"/>
    <path class="st0" d="M413.4,294.7c-0.1-0.2,0-0.5,0.2-0.6c20.5-8.5,34.2-27.4,31.1-50c-3.2-23.5-24.4-40.5-48.2-40.5h-60.3
	c-2.4,0-4.1,2-4.1,4.1v144c0,2.2,1.7,4.1,4.1,4.1h19.5c2.5,0,4.5-2,4.5-4.5v-54.6c0-0.2,0.2-0.4,0.4-0.4h23.3c0.2,0,0.3,0.1,0.4,0.2
	l28.6,57.4c0.4,0.9,1.5,2,3.5,2h22.7c3.7,0,5.2-3.5,3.7-6.3L413.4,294.7z M395.7,273h-34.8c-0.2,0-0.4-0.2-0.4-0.4v-42.5
	c0-0.2,0.2-0.4,0.4-0.4h34.8c11.4,0,21.4,9.6,21.4,21.1C417,263,407.1,273,395.7,273z"/>
    <g>
	<path class="st0" d="M1259.3,203.7h-7.6c-2.5,0-4.3,2.1-4.3,4.4v122.8h-0.5l-103-129.3c-0.1-0.1-0.2-0.2-0.3-0.2h-5.3
		c-2.5,0-4.6,2-4.6,4.6v154.2c0,2.6,2.1,4.8,4.8,4.8h7.6c2.5,0,4.3-2.1,4.3-4.4V235.3h0.2l104.9,131.8c0.1,0.1,0.2,0.2,0.3,0.2h3.7
		c2.5,0,4.6-2,4.6-4.6V208.5C1264.1,205.9,1261.9,203.7,1259.3,203.7z"/>
        <path class="st0" d="M1084.4,203.7h-8.3c-2.5,0-4.3,2.1-4.3,4.4v96.5c0,26.2-16.5,46.3-43.4,46.3c-26.8,0-43-20.5-43-46.8v-96
		c0-2.3-1.8-4.4-4.3-4.4h-8.3c-2.6,0-4.8,2.2-4.8,4.8v97c0,35,24.5,61.7,60.4,61.7c36.1,0,60.8-26.7,60.8-61.7v-97
		C1089.2,205.9,1087,203.7,1084.4,203.7z"/>
        <path class="st0" d="M1323.8,203.7h-8.3c-2.6,0-4.8,2.2-4.8,4.8v151.7c0,2.6,2.1,4.8,4.8,4.8h8.3c2.6,0,4.8-2.2,4.8-4.8V208.5
		C1328.6,205.9,1326.4,203.7,1323.8,203.7z"/>
        <path class="st0" d="M1445.6,201.4c-45.7,0-82.1,37.1-82.1,83.1c0,46.1,36.4,82.7,82.1,82.7s82.3-36.6,82.3-82.7
		C1528,238.5,1491.4,201.4,1445.6,201.4z M1445.6,351.1c-36.4,0-66.1-29.9-66.1-66.6c0-36.6,29.7-67,66.1-67s66.3,30.4,66.3,67
		C1512,321.2,1482,351.1,1445.6,351.1z"/>
        <path class="st0" d="M1688.5,203.7h-7.6c-2.5,0-4.3,2.1-4.3,4.4v122.8h-0.5l-103-129.3c-0.1-0.1-0.2-0.2-0.3-0.2h-5.3
		c-2.5,0-4.6,2-4.6,4.6v154.2c0,2.6,2.1,4.8,4.8,4.8h7.6c2.5,0,4.3-2.1,4.3-4.4V235.3h0.2l104.9,131.8c0.1,0.1,0.2,0.2,0.3,0.2h3.7
		c2.5,0,4.6-2,4.6-4.6V208.5C1693.3,205.9,1691.2,203.7,1688.5,203.7z"/>
        <path class="st0" d="M275.1,278.7c-0.3-0.1-0.4-0.5,0-0.7c10-5.1,22.9-17.9,22.9-34.2c0-22.8-19.9-40.2-45.6-40.2h-49.5
		c-2.4,0-4.1,2-4.1,4.1v144c0,2.2,1.7,4.1,4.1,4.1h52.3c26.3,0,47.1-17.6,47.1-42C302.4,294.4,286.5,282.7,275.1,278.7z
		 M226.8,229.9c0-0.2,0.2-0.4,0.4-0.4h22.7c11,0,18.6,7.6,18.6,18.5s-7.6,19.6-18.6,19.6h-22.7c-0.2,0-0.4-0.2-0.4-0.4V229.9z
		 M252.9,330.2h-25.7c-0.2,0-0.4-0.2-0.4-0.4v-37.9c0-0.2,0.2-0.4,0.4-0.4h23.1c11.2,0,22,8,22,18.9
		C272.3,321.7,263.7,330.2,252.9,330.2z"/>
</g>
    <path class="st0" d="M721.6,203.6c2.4,0,4.1,2,4.1,4.1v57.2c0,0.2,0.2,0.4,0.4,0.4h69.6c0.2,0,0.4-0.2,0.4-0.4v-57.2
	c0-2.2,1.7-4.1,4.1-4.1h19.5c2.5,0,4.5,2,4.5,4.5v143.2c0,2.5-2,4.5-4.5,4.5h-19.5c-2.4,0-4.1-2-4.1-4.1v-59.6
	c0-0.2-0.2-0.4-0.4-0.4h-69.6c-0.2,0-0.4,0.2-0.4,0.4v59.6c0,2.2-1.7,4.1-4.1,4.1h-19.7c-2.5,0-4.5-2-4.5-4.5V208.1
	c0-2.5,2-4.5,4.5-4.5H721.6z"/>
    <path class="st0" d="M499.8,203.6c2.5,0,4.5,2,4.5,4.5v143.2c0,2.5-2,4.5-4.5,4.5h-19.2c-2.5,0-4.5-2-4.5-4.5V208.1
	c0-2.5,2-4.5,4.5-4.5H499.8z"/>
    <path class="st0" d="M610.3,201.4c19.4,0,38,7.6,52.7,20.2c1.7,1.7,1.9,4.4,0.2,6.1l-13.4,14.1c-1.7,1.7-3.7,1.7-5.6,0
	c-9.3-8.3-20.7-12.6-32.6-12.6c-27,0-48.4,23.3-48.4,50.5c0,27,21.4,49.8,48.6,49.8c11.9,0,21-3.6,25.5-5.3c0.2-0.1,0.2-0.2,0.2-0.4
	V306c0-0.2-0.2-0.4-0.4-0.4h-16.9c-2.4,0-4.1-1.7-4.1-3.9v-16.8c0-2.5,2-4.5,4.5-4.5h40.6c2.4,0,4.3,1.9,4.3,4.3v55.5
	c0,1.7-0.9,2.8-1.7,3.5c0,0-22.2,14.1-53.6,14.1c-43,0-77.5-34.4-77.5-77.9C532.8,236.4,567.4,201.4,610.3,201.4z"/>
</svg>
