<?xml version="1.0" encoding="utf-8"?>
<!-- Generator: Adobe Illustrator 24.3.0, SVG Export Plug-In . SVG Version: 6.00 Build 0)  -->
<svg version="1.1" id="Laag_1" xmlns="http://www.w3.org/2000/svg" xmlns:xlink="http://www.w3.org/1999/xlink" x="0px" y="0px"
	 viewBox="0 0 1920 1080" style="enable-background:new 0 0 1920 1080;" xml:space="preserve">
<style type="text/css">
	.st0{fill:#FFFFFF;}
</style>
<path class="st0" d="M257.8,353.9v109.4l0.1,0.1c0,0.3-0.1,0.6-0.1,1c0,12.6,10.1,22.8,22.6,22.8c0.3,0,0.6-0.1,1-0.1l0.1,0.1h108.2
	c0.2,0,0.4,0.2,0.4,0.4v11.4c0,0.2-0.2,0.4-0.4,0.4H281.5l-0.1,0.1c-0.3,0-0.6-0.1-1-0.1c-12.5,0-22.6,10.2-22.6,22.8l0,0.3
	c0,0.2,0.1,0.4,0.1,0.6l-0.1,0.1v109c0,0.2-0.2,0.4-0.4,0.4h-11.4c-0.2,0-0.4-0.2-0.4-0.4v-109l-0.1-0.1c0-0.3,0.1-0.6,0.1-1
	c0-12.6-10.1-22.8-22.6-22.8c-0.3,0-0.6,0.1-1,0.1l-0.1-0.1H113.7c-0.2,0-0.4-0.2-0.4-0.4v-11.4c0-0.2,0.2-0.4,0.4-0.4H222l0.1-0.1
	c0.3,0,0.6,0.1,1,0.1c12.5,0,22.6-10.2,22.6-22.8c0-0.3-0.1-0.6-0.1-1l0.1-0.1V353.9"/>
<path class="st0" d="M1058.4,557.5c2.4,0,4.1,2,4.1,4.1v17.8c0,2.2-1.7,4.1-4.1,4.1h-32.6c-0.2,0-0.4,0.2-0.4,0.4v121.2
	c0,2.5-2,4.5-4.5,4.5h-19.2c-2.5,0-4.5-2-4.5-4.5V584c0-0.2-0.2-0.4-0.4-0.4H964c-2.4,0-4.1-2-4.1-4.1v-17.8c0-2.2,1.7-4.1,4.1-4.1
	H1058.4z"/>
<path class="st0" d="M526.7,648.6c-0.1-0.2,0-0.5,0.2-0.6c20.5-8.5,34.2-27.4,31.1-50c-3.2-23.5-24.4-40.5-48.2-40.5h-60.3
	c-2.4,0-4.1,2-4.1,4.1v144c0,2.2,1.7,4.1,4.1,4.1H469c2.5,0,4.5-2,4.5-4.5v-54.6c0-0.2,0.2-0.4,0.4-0.4h23.3c0.2,0,0.3,0.1,0.4,0.2
	l28.6,57.4c0.4,0.9,1.5,2,3.5,2h22.7c3.7,0,5.2-3.5,3.7-6.3L526.7,648.6z M509,626.9h-34.8c-0.2,0-0.4-0.2-0.4-0.4V584
	c0-0.2,0.2-0.4,0.4-0.4H509c11.4,0,21.4,9.6,21.4,21.1C530.3,616.9,520.4,626.9,509,626.9z"/>
<g>
	<path class="st0" d="M1372.6,557.6h-7.6c-2.5,0-4.3,2.1-4.3,4.4v122.8h-0.5l-103-129.3c-0.1-0.1-0.2-0.2-0.3-0.2h-5.3
		c-2.5,0-4.6,2-4.6,4.6v154.2c0,2.6,2.1,4.8,4.8,4.8h7.6c2.5,0,4.3-2.1,4.3-4.4V589.2h0.2L1368.8,721c0.1,0.1,0.2,0.2,0.3,0.2h3.7
		c2.5,0,4.6-2,4.6-4.6V562.4C1377.4,559.8,1375.2,557.6,1372.6,557.6z"/>
	<path class="st0" d="M1197.7,557.6h-8.3c-2.5,0-4.3,2.1-4.3,4.4v96.5c0,26.2-16.5,46.3-43.4,46.3c-26.8,0-43-20.5-43-46.8v-96
		c0-2.3-1.8-4.4-4.3-4.4h-8.3c-2.6,0-4.8,2.2-4.8,4.8v97c0,35,24.5,61.7,60.4,61.7c36.1,0,60.8-26.7,60.8-61.7v-97
		C1202.5,559.8,1200.3,557.6,1197.7,557.6z"/>
	<path class="st0" d="M1437.1,557.6h-8.3c-2.6,0-4.8,2.2-4.8,4.8v151.7c0,2.6,2.1,4.8,4.8,4.8h8.3c2.6,0,4.8-2.2,4.8-4.8V562.4
		C1441.9,559.8,1439.7,557.6,1437.1,557.6z"/>
	<path class="st0" d="M1558.9,555.3c-45.7,0-82.1,37.1-82.1,83.1c0,46.1,36.4,82.7,82.1,82.7c45.7,0,82.3-36.6,82.3-82.7
		C1641.3,592.4,1604.7,555.3,1558.9,555.3z M1558.9,705c-36.4,0-66.1-29.9-66.1-66.6c0-36.6,29.7-67,66.1-67
		c36.4,0,66.3,30.4,66.3,67C1625.3,675.1,1595.3,705,1558.9,705z"/>
	<path class="st0" d="M1801.8,557.6h-7.6c-2.5,0-4.3,2.1-4.3,4.4v122.8h-0.5l-103-129.3c-0.1-0.1-0.2-0.2-0.3-0.2h-5.3
		c-2.5,0-4.6,2-4.6,4.6v154.2c0,2.6,2.1,4.8,4.8,4.8h7.6c2.5,0,4.3-2.1,4.3-4.4V589.2h0.2L1798,721c0.1,0.1,0.2,0.2,0.3,0.2h3.7
		c2.5,0,4.6-2,4.6-4.6V562.4C1806.6,559.8,1804.5,557.6,1801.8,557.6z"/>
	<path class="st0" d="M388.4,632.6c-0.3-0.1-0.4-0.5,0-0.7c10-5.1,22.9-17.9,22.9-34.2c0-22.8-19.9-40.2-45.6-40.2h-49.5
		c-2.4,0-4.1,2-4.1,4.1v144c0,2.2,1.7,4.1,4.1,4.1h52.3c26.3,0,47.1-17.6,47.1-42C415.7,648.3,399.8,636.6,388.4,632.6z
		 M340.1,583.8c0-0.2,0.2-0.4,0.4-0.4h22.7c11,0,18.6,7.6,18.6,18.5c0,10.9-7.6,19.6-18.6,19.6h-22.7c-0.2,0-0.4-0.2-0.4-0.4V583.8z
		 M366.2,684.1h-25.7c-0.2,0-0.4-0.2-0.4-0.4v-37.9c0-0.2,0.2-0.4,0.4-0.4h23.1c11.2,0,22,8,22,18.9
		C385.6,675.6,377,684.1,366.2,684.1z"/>
</g>
<path class="st0" d="M834.9,557.5c2.4,0,4.1,2,4.1,4.1v57.2c0,0.2,0.2,0.4,0.4,0.4H909c0.2,0,0.4-0.2,0.4-0.4v-57.2
	c0-2.2,1.7-4.1,4.1-4.1h19.5c2.5,0,4.5,2,4.5,4.5v143.2c0,2.5-2,4.5-4.5,4.5h-19.5c-2.4,0-4.1-2-4.1-4.1V646c0-0.2-0.2-0.4-0.4-0.4
	h-69.6c-0.2,0-0.4,0.2-0.4,0.4v59.6c0,2.2-1.7,4.1-4.1,4.1h-19.7c-2.5,0-4.5-2-4.5-4.5V562c0-2.5,2-4.5,4.5-4.5H834.9z"/>
<path class="st0" d="M613.1,557.5c2.5,0,4.5,2,4.5,4.5v143.2c0,2.5-2,4.5-4.5,4.5h-19.2c-2.5,0-4.5-2-4.5-4.5V562
	c0-2.5,2-4.5,4.5-4.5H613.1z"/>
<path class="st0" d="M723.6,555.3c19.4,0,38,7.6,52.7,20.2c1.7,1.7,1.9,4.4,0.2,6.1l-13.4,14.1c-1.7,1.7-3.7,1.7-5.6,0
	c-9.3-8.3-20.7-12.6-32.6-12.6c-27,0-48.4,23.3-48.4,50.5c0,27,21.4,49.8,48.6,49.8c11.9,0,21-3.6,25.5-5.3c0.2-0.1,0.2-0.2,0.2-0.4
	v-17.8c0-0.2-0.2-0.4-0.4-0.4h-16.9c-2.4,0-4.1-1.7-4.1-3.9v-16.8c0-2.5,2-4.5,4.5-4.5h40.6c2.4,0,4.3,1.9,4.3,4.3v55.5
	c0,1.7-0.9,2.8-1.7,3.5c0,0-22.2,14.1-53.6,14.1c-43,0-77.5-34.4-77.5-77.9C646.1,590.3,680.7,555.3,723.6,555.3z"/>
</svg>
