<svg xmlns="http://www.w3.org/2000/svg" viewBox="0 0 1125 190">
    <g transform="translate(-1,-1)">
        <path fill="#ffff"
              d="M185.71 136.26a18.84 18.84 0 10-26.16-27.11 18.84 18.84 0 0026.16 27.11zM57.21 184.91a18.84 18.84 0 1027.12-26.16 18.84 18.84 0 00-27.12 26.16zM8.79 55.46A18.84 18.84 0 0035 82.58 18.84 18.84 0 008.79 55.46zM138.06 7.58A18.84 18.84 0 10111 33.74a18.84 18.84 0 0027.06-26.16z"/>
        <path fill="#ffff"
              d="M178.43 65.73a18 18 0 005.18-13.63V52A17.94 17.94 0 00153 40.26l-17.74 18.06c-5.68 5.69-18.82 6.55-25.56-.2l-42.47-43a17.89 17.89 0 00-12.89-5.41c-16 0-24 19.32-12.67 30.62l17.9 17.28c6.51 7.09 5.8 19.57 0 25.38l-43 43.09a17.93 17.93 0 00-5.26 12.47v.4c-.19 16.09 19.25 24.28 30.62 12.9L59.8 133.9c6.21-6.22 19.15-6.29 25.67.23l42.28 42.53A17.92 17.92 0 00141 181.9c15.72-.46 23.28-19.5 12.16-30.62L136.1 134c-6.34-6.33-6.81-18.56 0-25.33zm-67 44.39a19.8 19.8 0 01-27.5-28.5 19.8 19.8 0 1127.5 28.5z"/>
        <path fill="#ffffff"
              d="M260.34 82.81v65.24h-21.29V48h21.89l46.35 62.84V48h21.3v100H308zM377.79 73.81c21.6 0 36.3 16.2 36.3 39.89v4.2h-53.85c1.2 9.15 8.55 16.8 20.85 16.8 6.75 0 14.7-2.7 19.35-7.2l8.4 12.3c-7.2 6.6-18.6 10-29.85 10-22.05 0-38.7-14.85-38.7-38.1 0-20.94 15.45-37.89 37.5-37.89zM359.94 105h35.7c-.45-6.89-5.25-16-17.85-16-11.85 0-16.95 8.81-17.85 16zM453.24 123.6l-16.65 24.45h-21.15l25.65-37.2-24.15-35.24h21.3l15 22.35 14.85-22.35h21.3l-24.3 35.24 26 37.2h-21.3zM546.39 138.9a33.91 33.91 0 01-25.5 10.95c-15.9 0-23.4-8.7-23.4-22.8V75.61h19v43.94c0 10 5.25 13.35 13.35 13.35a21.33 21.33 0 0016.5-8.25v-49h19.05v72.44h-19zM583.29 125.25c5.25 4.95 16.05 9.9 25.05 9.9 8.25 0 12.15-3.3 12.15-7.8 0-4.95-6.6-6.3-14.55-7.8-12.45-2.4-28.5-5.55-28.5-22.94 0-12.15 10.65-22.8 29.7-22.8a46.28 46.28 0 0129.25 9.9l-7.65 13.05c-4.35-4.65-12.6-8.4-21.45-8.4-6.9 0-11.4 3.15-11.4 7.2 0 4.2 5.7 5.4 13.8 7 12.45 2.4 29.1 5.85 29.1 24 0 13.2-11.25 23.25-31.35 23.25-12.6 0-24.75-4.2-32.4-11.25zM772.74 78l-28.2 70h-9.3L707 78v70h-21.3V48h29.85l24.3 60.44L764.19 48h30v100h-21.45zM859.44 138.9a33.91 33.91 0 01-25.5 10.95c-15.9 0-23.4-8.7-23.4-22.8V75.61h19.05v43.94c0 10 5.25 13.35 13.35 13.35a21.33 21.33 0 0016.5-8.25v-49h19v72.44h-19zM898.14 130.05V92.26h-12V75.61h12v-19.8h19.2v19.8H932v16.65h-14.7V125c0 4.5 2.4 8 6.6 8 2.85 0 5.55-1.05 6.6-2.1l4.05 14.4c-2.85 2.55-8 4.65-15.9 4.65-13.31-.1-20.51-6.95-20.51-19.9zM991 138.9a33.91 33.91 0 01-25.5 10.95c-15.9 0-23.4-8.7-23.4-22.8V75.61h19v43.94c0 10 5.25 13.35 13.35 13.35a21.33 21.33 0 0016.5-8.25v-49h19v72.44H991zM1069.44 140.55c-5 5.85-13.5 9.3-23 9.3-11.55 0-25.2-7.8-25.2-24 0-16.95 13.65-23.1 25.2-23.1 9.6 0 18.15 3 23 8.85v-10c0-7.35-6.3-12.15-15.9-12.15a30.48 30.48 0 00-21.15 8.55l-7.2-12.75c8.85-7.8 20.25-11.4 31.65-11.4 16.5 0 31.64 6.6 31.64 27.45v46.79h-19zm0-18.9c-3.15-4.2-9.15-6.3-15.3-6.3-7.5 0-13.65 3.9-13.65 11 0 6.75 6.15 10.65 13.65 10.65 6.15 0 12.15-2.1 15.3-6.3zM1104.39 48h19v100h-19z"/>
    </g>
</svg>
